<svg xmlns="http://www.w3.org/2000/svg" width="64" height="64" viewBox="0 0 64 64">
  <g fill="none" fill-rule="evenodd" stroke="currentColor" stroke-width="2">
    <circle cx="32" cy="32" r="6"/>
    <circle cx="32" cy="56" r="6"/>
    <circle cx="32" cy="8" r="6"/>
    <path d="M32,26 L32,14"/>
    <path d="M32,50 L32,38"/>
    <circle cx="8" cy="32" r="6"/>
    <circle cx="8" cy="56" r="6"/>
    <circle cx="8" cy="8" r="6"/>
    <path d="M9,26 L9,14"/>
    <path d="M9,50 L9,38"/>
    <circle cx="56" cy="32" r="6"/>
    <circle cx="56" cy="56" r="6"/>
    <circle cx="56" cy="8" r="6"/>
    <path d="M56,26 L56,14"/>
    <path d="M56,50 L56,38"/>
    <path d="M38,32 L50,32"/>
    <path d="M14,32 L26,32"/>
  </g>
</svg>
