<svg xmlns="http://www.w3.org/2000/svg" width="32" height="32" viewBox="0 0 32 32">
  <path fill="currentColor" fill-rule="evenodd" d="M24.7114001,30.4228002 C29.0987629,27.5695613 32,22.6235908 32,17 C32,13.5033961 30.8783724,10.2687623 28.9752816,7.63626311 C28.2592739,8.94487089 27.5009788,10.3154158 26.7463716,11.6540707 C27.5487082,13.263811 28,15.0792031 28,17 C28,21.0559864 25.9877241,24.6419806 22.9070517,26.8141033 L24.7114001,30.4228002 Z M7.28859989,30.4228002 C2.9012371,27.5695613 0,22.6235908 0,17 C0,8.163444 7.163444,1 16,1 C19.5460661,1 22.8226981,2.15358461 25.4750907,4.10594864 C24.1744166,4.81753267 22.8120361,5.57115787 21.4802105,6.3216162 C19.8374273,5.47683067 17.9743985,5 16,5 C9.372583,5 4,10.372583 4,17 C4,21.0559864 6.01227588,24.6419806 9.09294835,26.8141033 L7.28859989,30.4228002 Z M12.8284271,20.263456 C14.3905243,21.8255531 16.9231842,21.8255531 18.4852814,20.263456 C20.0473785,18.7013588 26.263456,6.82842712 26.263456,6.82842712 C26.263456,6.82842712 14.3905243,13.0445046 12.8284271,14.6066017 C11.26633,16.1686989 11.26633,18.7013588 12.8284271,20.263456 Z"/>
</svg>
