<svg xmlns="http://www.w3.org/2000/svg" width="32" height="32" viewBox="0 0 32 32">
  <path fill="currentColor" fill-rule="evenodd" d="M23.627417,3 L29.2842712,8.65685425 L6.65685425,31.2842712 L1,25.627417 L23.627417,3 Z M23.627417,5.82842712 L26.4558441,8.65685425 L20.7989899,14.3137085 L17.9705627,11.4852814 L23.627417,5.82842712 Z M7,3 L8.33333333,5.66666667 L5.66666667,5.66666667 L7,3 Z M11,7 L8.33333333,8.33333333 L8.33333333,5.66666667 L11,7 Z M7,11 L5.66666667,8.33333333 L8.33333333,8.33333333 L7,11 Z M3,7 L5.66666667,5.66666667 L5.66666667,8.33333333 L3,7 Z M5.66666667,5.66666667 L8.33333333,5.66666667 L8.33333333,8.33333333 L5.66666667,8.33333333 L5.66666667,5.66666667 Z M25,21 L26.3333333,23.6666667 L23.6666667,23.6666667 L25,21 Z M29,25 L26.3333333,26.3333333 L26.3333333,23.6666667 L29,25 Z M25,29 L23.6666667,26.3333333 L26.3333333,26.3333333 L25,29 Z M21,25 L23.6666667,23.6666667 L23.6666667,26.3333333 L21,25 Z M23.6666667,23.6666667 L26.3333333,23.6666667 L26.3333333,26.3333333 L23.6666667,26.3333333 L23.6666667,23.6666667 Z"/>
</svg>
