<svg xmlns="http://www.w3.org/2000/svg" width="64" height="64" viewBox="0 0 64 64">
  <g fill="currentColor" fill-rule="evenodd">
    <path d="M21.2842712,3.28427125 L37.2842712,3.28427125 L37.2842712,67.2842712 L21.2842712,67.2842712 L21.2842712,3.28427125 Z M25.2842712,7.28427125 L33.2842712,7.28427125 L33.2842712,23.2842712 L25.2842712,23.2842712 L25.2842712,7.28427125 Z" transform="rotate(45 29.284 35.284)"/>
    <path d="M32,3 L33.3333333,5.66666667 L30.6666667,5.66666667 L32,3 Z M36,7 L33.3333333,8.33333333 L33.3333333,5.66666667 L36,7 Z M32,11 L30.6666667,8.33333333 L33.3333333,8.33333333 L32,11 Z M28,7 L30.6666667,5.66666667 L30.6666667,8.33333333 L28,7 Z M30.6666667,5.66666667 L33.3333333,5.66666667 L33.3333333,8.33333333 L30.6666667,8.33333333 L30.6666667,5.66666667 Z"/>
    <path d="M58,2 L59.3333333,4.66666667 L56.6666667,4.66666667 L58,2 Z M62,6 L59.3333333,7.33333333 L59.3333333,4.66666667 L62,6 Z M58,10 L56.6666667,7.33333333 L59.3333333,7.33333333 L58,10 Z M54,6 L56.6666667,4.66666667 L56.6666667,7.33333333 L54,6 Z M56.6666667,4.66666667 L59.3333333,4.66666667 L59.3333333,7.33333333 L56.6666667,7.33333333 L56.6666667,4.66666667 Z"/>
    <path d="M58,24 L59.3333333,26.6666667 L56.6666667,26.6666667 L58,24 Z M62,28 L59.3333333,29.3333333 L59.3333333,26.6666667 L62,28 Z M58,32 L56.6666667,29.3333333 L59.3333333,29.3333333 L58,32 Z M54,28 L56.6666667,26.6666667 L56.6666667,29.3333333 L54,28 Z M56.6666667,26.6666667 L59.3333333,26.6666667 L59.3333333,29.3333333 L56.6666667,29.3333333 L56.6666667,26.6666667 Z"/>
    <path d="M14,6 L16.6666667,11.3333333 L11.3333333,11.3333333 L14,6 Z M22,14 L16.6666667,16.6666667 L16.6666667,11.3333333 L22,14 Z M14,22 L11.3333333,16.6666667 L16.6666667,16.6666667 L14,22 Z M6,14 L11.3333333,11.3333333 L11.3333333,16.6666667 L6,14 Z M11.3333333,11.3333333 L16.6666667,11.3333333 L16.6666667,16.6666667 L11.3333333,16.6666667 L11.3333333,11.3333333 Z"/>
    <path d="M50,42 L52.6666667,47.3333333 L47.3333333,47.3333333 L50,42 Z M58,50 L52.6666667,52.6666667 L52.6666667,47.3333333 L58,50 Z M50,58 L47.3333333,52.6666667 L52.6666667,52.6666667 L50,58 Z M42,50 L47.3333333,47.3333333 L47.3333333,52.6666667 L42,50 Z M47.3333333,47.3333333 L52.6666667,47.3333333 L52.6666667,52.6666667 L47.3333333,52.6666667 L47.3333333,47.3333333 Z"/>
  </g>
</svg>
