<svg xmlns="http://www.w3.org/2000/svg" width="64" height="64" viewBox="0 0 64 64">
  <path fill="currentColor" fill-rule="evenodd" d="M31.968,0 C14.304,0 0,14.304 0,32 C0,49.696 14.304,64 31.968,64 C49.632,64 64,49.696 64,32 C64,14.304 49.664,0 31.968,0 Z M32,60 C16.53,60 4,47.47 4,32 C4,16.53 16.53,4 32,4 C47.47,4 60,16.53 60,32 C60,47.47 47.47,60 32,60 Z M35.2,25.408 L38.592,28.8 L41.984,25.408 L45.376,28.8 L48.768,25.408 L41.984,18.624 L35.2,25.408 Z M22.016,25.408 L25.408,28.8 L28.8,25.408 L22.016,18.624 L15.232,25.408 L18.624,28.8 L22.016,25.408 Z M32,49.6 C39.456,49.6 45.792,44.928 48.352,38.4 L15.648,38.4 C18.208,44.928 24.544,49.6 32,49.6 Z"/>
</svg>
