<svg xmlns="http://www.w3.org/2000/svg" width="32" height="32" viewBox="0 0 32 32">
  <path fill="currentColor" fill-rule="evenodd" d="M16,32 C24.836556,32 32,24.836556 32,16 C32,7.163444 24.836556,0 16,0 C7.163444,0 0,7.163444 0,16 C0,24.836556 7.163444,32 16,32 Z M10,16 C12.209139,16 14,14.209139 14,12 C14,9.790861 12.209139,8 10,8 C7.790861,8 6,9.790861 6,12 C6,14.209139 7.790861,16 10,16 Z M22,16 C24.209139,16 26,14.209139 26,12 C26,9.790861 24.209139,8 22,8 C19.790861,8 18,9.790861 18,12 C18,14.209139 19.790861,16 22,16 Z M27.5924577,19 C26.2976637,24.1756816 21.7310383,28 16.2962288,28 C10.8614194,28 6.29479392,24.1756816 5,19 L27.5924577,19 L27.5924577,19 Z"/>
</svg>
