<svg xmlns="http://www.w3.org/2000/svg" width="64" height="64" viewBox="0 0 64 64"><g><path d="M25.7 36.6l-12.2 12.3-4.6 4.6-4.6-4.6-2.3-2.3c-.4-.4-1.2-.4-1.6 0-.3.2-.4.5-.4.8v15.4c0 .7.5 1.2 1.2 1.2h15.4c.3 0 .6-.1.8-.3.2-.2.3-.5.3-.8 0-.3-.1-.6-.3-.8l-2.3-2.3-4.6-4.6 4.6-4.6 12.2-12.2c.4-.5.4-1.2 0-1.6-.4-.6-1.1-.6-1.6-.2zm-12.2 24.8l.3.3h-11.5v-11.5l.3.3 5.5 5.5 5.4 5.4zM62.8 0h-15.4c-.3 0-.6.1-.8.3-.2.2-.3.5-.3.8s.1.6.3.8l2.3 2.3 4.6 4.6-4.6 4.6-12.3 12.3c-.4.4-.4 1.2 0 1.6.2.2.5.3.8.3s.6-.1.8-.3l12.2-12.2 4.6-4.6 4.6 4.6 2.3 2.3c.2.2.5.3.8.3.3 0 .6-.1.8-.3.2-.2.3-.5.3-.8v-15.4c.2-.7-.3-1.2-1-1.2zm-1.1 8.9v4.9l-.3-.3-5.5-5.5-5.5-5.5-.3-.3h11.5l.1 6.7z"/></g></svg>