<svg xmlns="http://www.w3.org/2000/svg" width="64" height="64" viewBox="0 0 64 64"><path d="M52.4 1.1c0-.6-.5-1.1-1.1-1.1h-38.6c-.6 0-1.1.5-1.1 1.1 0 .3-.3 7.3 3.8 11.9l-3.7 10.9c-.1.3-.1.6.1.9l19.2 38.6c0 .1.1.1.2.2l.1.2c.2.2.4.3.7.3.3 0 .5-.1.7-.3.1 0 .1-.1.1-.2s.1-.1.2-.2l19.3-38.6c.1-.3.2-.6.1-.9l-3.8-10.9c4.1-4.6 3.8-11.6 3.8-11.9zm-2.3 1.2c-.1 2-.6 6.4-3.3 9.3h-29.7c-2.7-3-3.2-7.3-3.2-9.3h36.2zm-18.1 32.4c-1.5 0-2.7-1.2-2.7-2.7 0-1.5 1.2-2.7 2.7-2.7 1.5 0 2.7 1.2 2.7 2.7 0 .7-.3 1.4-.8 1.9s-1.2.8-1.9.8zm1.1 23.3v-21.2c.9-.2 1.7-.6 2.4-1.2.9-.9 1.5-2.2 1.5-3.5 0-2.8-2.2-5-5-5s-5 2.3-5 5c0 2.4 1.7 4.2 3.9 4.8v21.1l-16.9-33.8 3.5-10.3h29l3.5 10.3-16.9 33.8z"/></svg>