<svg xmlns="http://www.w3.org/2000/svg" width="64" height="64" viewBox="0 0 64 64"><path d="M64 24.8v-.4l-6.7-15.6c-.2-.4-.6-.7-1.1-.7h-48.5c-.5 0-.9.3-1.1.7l-6.5 15.6v.5c0 .3.1.5.3.7l30.8 35h.1l.3.2.1.1c0 .1.1.1.3.1.2 0 .3 0 .5-.1l.1-.1c.1 0 .2-.1.2-.2h.1l30.8-35c.2-.2.3-.4.3-.8zm-24.1-14.3l5.7 13.2h-27.1l5.7-13.2h15.7zm5.6 15.5l-13.5 31-13.5-31h27zm-29.6 0l12 27.5-24.2-27.5h12.2zm32.2 0h12.2l-24.3 27.5 12.1-27.5zm13-2.3h-13l-5.7-13.2h13.1l5.6 13.2zm-52.6-13.2h13.1l-5.7 13.2h-13l5.6-13.2z"/></svg>