<svg xmlns="http://www.w3.org/2000/svg" width="64" height="64" viewBox="0 0 64 64"><path d="M57.1 15.5h-11.3c1.8-1.6 3-4 3-6.6 0-4.9-4-8.9-8.9-8.9-3.3 0-6.2 1.9-7.8 4.6-1.5-2.7-4.4-4.6-7.8-4.6-4.9 0-8.9 4-8.9 8.9 0 2.6 1.2 5 3 6.6h-11.4c-.6 0-1.2.5-1.2 1.2v9.7c0 .6.5 1.2 1.2 1.2h.8v35.3c0 .6.5 1.2 1.2 1.2h46.2c.6 0 1.2-.5 1.2-1.2v-35.4h.8c.6 0 1.2-.5 1.2-1.2v-9.7c-.2-.6-.7-1.1-1.3-1.1zm-1.2 2.3v7.4h-22.7v-7.4h22.700000000000003zm-16.1-15.6c3.7 0 6.6 3 6.6 6.6 0 3.6-3 6.6-6.6 6.6h-6.6v-6.6c0-3.6 3-6.6 6.6-6.6zm-22.1 6.6c0-3.6 3-6.6 6.6-6.6 3.6 0 6.6 3 6.6 6.6v6.6h-6.6c-3.7.1-6.6-2.9-6.6-6.6zm-9.5 9h22.7v7.4h-22.7v-7.4zm22.7 9.7v15.9h-20.8v-15.9h20.8zm-20.8 18.2h20.8v15.9h-20.8v-15.9zm23.1 15.9v-15.9h20.8v15.9h-20.8zm20.8-18.2h-20.8v-15.9h20.8v15.9z"/></svg>