<svg xmlns="http://www.w3.org/2000/svg" width="400" height="300" viewBox="0 0 400 300"><title>design</title><path d="M394,298H6a4,4,0,0,1-4-4V6A4,4,0,0,1,6,2H394a4,4,0,0,1,4,4V294A4,4,0,0,1,394,298Z" fill="#fff" stroke="#434a53" stroke-miterlimit="10" stroke-width="4"/><path d="M88.3,129.8h14.2c16.3,0,26,8.8,26,26.4s-9.7,26.9-25.5,26.9H88.3V129.8h0Zm13.5,45.7c10.8,0,17-6.1,17-19.3s-6.2-18.8-17-18.8H97.7v38h4.1v0.1Zm52.4-33.4c10.9,0,16.6,7.8,16.6,19a23.59,23.59,0,0,1-.4,4.4H144.9c0.8,7.3,5.4,11.3,11.8,11.3a17.29,17.29,0,0,0,9.3-2.9l3.2,5.9a25.54,25.54,0,0,1-13.7,4.3c-11.1,0-19.8-7.8-19.8-21,0.1-13,9.1-21,18.5-21h0Zm8.4,17.5c0-6.4-2.7-10.2-8.2-10.2-4.7,0-8.8,3.5-9.6,10.2h17.8Z" fill="#639"/><path d="M180.2,172.6c3.6,2.8,7,4.5,11.1,4.5,4.3,0,6.4-2,6.4-4.8,0-3.3-4.3-4.8-8.6-6.4-5.3-2-11.3-5-11.3-11.7,0-7,5.6-12,14.6-12a22,22,0,0,1,13.3,4.8l-4.3,5.7c-2.8-2-5.6-3.4-8.8-3.4-4,0-5.9,1.9-5.9,4.4,0,3.1,4,4.4,8.3,6,5.5,2,11.5,4.7,11.5,12.2,0,6.9-5.5,12.4-15.6,12.4a25.81,25.81,0,0,1-15.2-5.5Zm33.7-41.8c0-3.2,2.4-5.4,5.8-5.4s5.8,2.2,5.8,5.4-2.4,5.3-5.8,5.3S213.9,133.9,213.9,130.8Zm1,12.3h9.4v40.1h-9.4V143.1Zm24.4,38.8v-0.3a7.59,7.59,0,0,1-3.6-6.7c0-3.1,2.1-5.8,4.4-7.4v-0.3a13.47,13.47,0,0,1-5.2-10.6c0-9.2,7.4-14.4,15.8-14.4a17.77,17.77,0,0,1,5.9,1H271v6.9h-7.3a10.88,10.88,0,0,1,2.3,6.8c0,8.9-6.7,13.6-15.2,13.6a13.84,13.84,0,0,1-5.5-1.1c-1.2,1.1-2,2-2,3.8,0,2.3,1.6,3.7,6.5,3.7h7.1c9.6,0,14.7,2.9,14.7,9.9,0,7.9-8.3,14.1-21.4,14.1-9.5,0-16.6-3.4-16.6-10.4C233.6,187.1,235.7,184.1,239.3,181.9Zm12.4,12.9c6.4,0,10.9-3,10.9-6.4,0-3.1-2.5-4-7.1-4H250a22,22,0,0,1-5.5-.6c-2.1,1.6-3.1,3.4-3.1,5.3C241.5,192.6,245.4,194.8,251.7,194.8Zm6-38.3c0-5-3-7.9-6.9-7.9s-7,2.9-7,7.9,3.1,8.1,7,8.1S257.7,161.6,257.7,156.5Zm21.1-13.4h7.8l0.7,5.4h0.3c3.6-3.5,7.7-6.4,13.1-6.4,8.6,0,12.3,5.8,12.3,15.9v25.1h-9.4V159.2c0-6.6-1.9-9.1-6.3-9.1-3.5,0-5.8,1.7-9.1,5v28h-9.4v-40Z" fill="#8b008b"/><path d="M65.7,184.1H332.6" fill="none" stroke="#3455db" stroke-miterlimit="10" stroke-width="4"/><path d="M65,101.1H335V217H65V101.1Z" fill="none" stroke="#3455db" stroke-miterlimit="10" stroke-width="4"/><path d="M330,95.1h9.9V105H330V95.1Zm-268.9,0H71V105H61.1V95.1Zm135.9,0h9.9V105H197V95.1ZM330,212h9.9v9.9H330V212ZM61.1,212H71v9.9H61.1V212ZM330,153h9.9v9.9H330V153ZM61.1,153H71v9.9H61.1V153ZM197,212h9.9v9.9H197V212Z" fill="#fff" stroke="#3455db" stroke-miterlimit="10" stroke-width="4"/><path d="M293.8,231.6l-28.1-21.2-0.7.5,4.7,34.8,6.4-6.9,9.1,15.6,8.6-5-9.1-15.6Z" fill="#434a53" stroke="#fff" stroke-linejoin="round" stroke-width="4"/><circle cx="14" cy="13" r="4" fill="#434a53"/><circle cx="26" cy="13" r="4" fill="#434a53"/><circle cx="38" cy="13" r="4" fill="#434a53"/></svg>