<svg xmlns="http://www.w3.org/2000/svg" width="400" height="300" viewBox="0 0 400 300"><path fill="#fff" stroke="#434A53" stroke-width="4" stroke-miterlimit="10" d="M394 298h-388c-2.2 0-4-1.8-4-4v-288c0-2.2 1.8-4 4-4h388c2.2 0 4 1.8 4 4v288c0 2.2-1.8 4-4 4z"/><path fill="#434A53" d="M400 22h-400v274c0 2.2 1.8 4 4 4h392c2.2 0 4-1.8 4-4v-274z"/><path fill="#8C4BA9" d="M88.3 129.8h14.2c16.3 0 26 8.8 26 26.4 0 17.7-9.7 26.9-25.5 26.9h-14.7v-53.3zm13.5 45.7c10.8 0 17-6.1 17-19.3 0-13.1-6.2-18.8-17-18.8h-4.1v38h4.1zM154.2 142.1c10.9 0 16.6 7.8 16.6 19 0 1.8-.2 3.4-.4 4.4h-25.5c.8 7.3 5.4 11.3 11.8 11.3 3.4 0 6.4-1.1 9.3-2.9l3.2 5.9c-3.8 2.5-8.7 4.3-13.7 4.3-11.1 0-19.8-7.8-19.8-21 .1-13 9.1-21 18.5-21zm8.4 17.5c0-6.4-2.7-10.2-8.2-10.2-4.7 0-8.8 3.5-9.6 10.2h17.8z"/><path fill="#B2347E" d="M180.2 172.6c3.6 2.8 7 4.5 11.1 4.5 4.3 0 6.4-2 6.4-4.8 0-3.3-4.3-4.8-8.6-6.4-5.3-2-11.3-5-11.3-11.7 0-7 5.6-12 14.6-12 5.5 0 10 2.3 13.3 4.8l-4.3 5.7c-2.8-2-5.6-3.4-8.8-3.4-4 0-5.9 1.9-5.9 4.4 0 3.1 4 4.4 8.3 6 5.5 2 11.5 4.7 11.5 12.2 0 6.9-5.5 12.4-15.6 12.4-5.5 0-11.3-2.4-15.2-5.5l4.5-6.2zM213.9 130.8c0-3.2 2.4-5.4 5.8-5.4 3.3 0 5.8 2.2 5.8 5.4 0 3.1-2.4 5.3-5.8 5.3s-5.8-2.2-5.8-5.3zm1 12.3h9.4v40.1h-9.4v-40.1zM239.3 181.9v-.3c-2-1.3-3.6-3.4-3.6-6.7 0-3.1 2.1-5.8 4.4-7.4v-.3c-2.7-2-5.2-5.9-5.2-10.6 0-9.2 7.4-14.4 15.8-14.4 2.2 0 4.2.4 5.9 1h14.4v6.9h-7.3c1.3 1.6 2.3 4 2.3 6.8 0 8.9-6.7 13.6-15.2 13.6-1.7 0-3.7-.3-5.5-1.1-1.2 1.1-2 2-2 3.8 0 2.3 1.6 3.7 6.5 3.7h7.1c9.6 0 14.7 2.9 14.7 9.9 0 7.9-8.3 14.1-21.4 14.1-9.5 0-16.6-3.4-16.6-10.4 0-3.4 2.1-6.4 5.7-8.6zm12.4 12.9c6.4 0 10.9-3 10.9-6.4 0-3.1-2.5-4-7.1-4h-5.5c-2.2 0-3.9-.2-5.5-.6-2.1 1.6-3.1 3.4-3.1 5.3.1 3.5 4 5.7 10.3 5.7zm6-38.3c0-5-3-7.9-6.9-7.9s-7 2.9-7 7.9c0 5.1 3.1 8.1 7 8.1 3.8 0 6.9-3 6.9-8.1zM278.8 143.1h7.8l.7 5.4h.3c3.6-3.5 7.7-6.4 13.1-6.4 8.6 0 12.3 5.8 12.3 15.9v25.1h-9.4v-23.9c0-6.6-1.9-9.1-6.3-9.1-3.5 0-5.8 1.7-9.1 5v28h-9.4v-40z"/><path stroke="#05BED5" stroke-width="4" stroke-miterlimit="10" fill="none" d="M65.7 184.1h266.9"/><path stroke="#05BED5" stroke-width="4" stroke-miterlimit="10" fill="none" d="M65 101.1h270v115.9h-270z"/><path fill="#fff" stroke="#05BED5" stroke-width="4" stroke-miterlimit="10" d="M330 95.1h9.9v9.9h-9.9zM61.1 95.1h9.9v9.9h-9.9zM197 95.1h9.9v9.9h-9.9zM330 212h9.9v9.9h-9.9zM61.1 212h9.9v9.9h-9.9zM330 153h9.9v9.9h-9.9zM61.1 153h9.9v9.9h-9.9zM197 212h9.9v9.9h-9.9z"/><path fill="#434A53" stroke="#fff" stroke-width="4" stroke-linejoin="round" stroke-miterlimit="10" d="M293.8 231.6l-28.1-21.2-.7.5 4.7 34.8 6.4-6.9 9.1 15.6 8.6-5-9.1-15.6z"/><circle fill="#434A53" cx="14" cy="13" r="4"/><circle fill="#434A53" cx="26" cy="13" r="4"/><circle fill="#434A53" cx="38" cy="13" r="4"/></svg>