<svg xmlns="http://www.w3.org/2000/svg" width="400" height="300" viewBox="0 0 400 300"><title>grid</title><path d="M394,298H6a4,4,0,0,1-4-4V6A4,4,0,0,1,6,2H394a4,4,0,0,1,4,4V294A4,4,0,0,1,394,298Z" fill="#fff" stroke="#434a53" stroke-miterlimit="10" stroke-width="4"/><circle cx="14" cy="13" r="4" fill="#434a53"/><circle cx="26" cy="13" r="4" fill="#434a53"/><circle cx="38" cy="13" r="4" fill="#434a53"/><line x1="2" y1="23.8" x2="398" y2="23.8" fill="none" stroke="#434a53" stroke-miterlimit="10" stroke-width="4"/><rect x="14" y="35" width="372" height="20" fill="#3455db"/><rect x="14" y="64.5" width="180" height="20" fill="#639"/><rect x="206" y="64.5" width="180" height="20" fill="#639"/><rect x="14" y="94.5" width="84" height="20" fill="#8b008b"/><rect x="110" y="94.5" width="84" height="20" fill="#8b008b"/><rect x="206" y="94.5" width="84" height="20" fill="#8b008b"/><rect x="302" y="94.5" width="84" height="20" fill="#8b008b"/></svg>