<svg xmlns="http://www.w3.org/2000/svg" width="201" height="201" viewBox="0 0 201 201"><path fill="#05BED5" d="M0 0h201v201h-201z"/><path fill="#E59F79" d="M150.2 188.1c-21.2 0-25.7-36.3-26.1-40.5-.4-3.5 2.2-6.7 5.7-7.1 3.6-.4 6.7 2.2 7.1 5.7 1.1 10.4 6.2 29.5 13.8 28.9 2.4-.2 4.1-1.3 5.5-3.4 4.3-6.7 5.5-25.5-5.5-56.4-1.2-3.4.6-7.1 3.9-8.3 3.3-1.2 7.1.6 8.3 3.9 10.8 30.4 12.3 55.1 4.1 67.7-3.6 5.5-8.9 8.8-15.3 9.3-.5.2-1 .2-1.5.2z"/><path fill="#8C4BA9" d="M139.5 149.6l-15.7 5.3-7.4-45.5s12.6 0 15.3 10.7"/><path fill="#B2347E" d="M116.4 109.4h-51c-6.2 0-11.2 3.6-11.2 8.1v83.5h73.4v-83.5c0-4.5-5-8.1-11.2-8.1z"/><path fill="#E59F79" d="M83.5 97v12.4l14.9 10.7 5.6-10.7v-11z"/><path fill="#CEC7C2" d="M169.8 87.3l2.7 2.1-1.2.9-2.6-.4zM160.9 128.3h-14.1c-1.6 0-2.7-1.3-2.4-2.9l6.3-35.7c.3-1.6 1.8-2.9 3.4-2.9h14.1c1.6 0 2.7 1.3 2.4 2.9l-6.3 35.7c-.3 1.6-1.8 2.9-3.4 2.9zM145.3 127.8l2.7 2.1.4-1.3-2.2-2.6z"/><path fill="#3B3D3E" d="M172.5 89.4c-.4-.4-1-.6-1.7-.6h-14.1c-1.6 0-3.1 1.3-3.4 2.9l-.6 3.4-5 28.7-.6 3.6c-.3 1.6.8 2.9 2.4 2.9h14.1c1.6 0 3.1-1.3 3.4-2.9l.6-3.6 5-28.7.6-3.4c.1-.9-.1-1.7-.7-2.3z"/><path fill="#454748" d="M152.7 95.1l-5.1 28.7h19.9l5-28.7z"/><path fill="#F9BE93" d="M104.9 187c-6.6 0-13.3-1.8-20-5.5-9.3-5.2-19.5-19.7-20.6-21.3-2.2-3.2-1.4-7.5 1.8-9.7 3.2-2.2 7.5-1.4 9.7 1.8 3.6 5.2 11 14.3 15.9 17 9 5 17.3 5.1 25.3.2 12.6-7.7 23.6-23.3 31.1-43.8 1.3-3.6 5.3-5.5 9-4.2 3.6 1.3 5.5 5.3 4.2 9-8.6 23.5-21.7 41.6-36.9 50.9-6.3 3.7-12.9 5.6-19.5 5.6zM146.5 130s-3.4-1.7-3.6-7.5v-13.2c0-1.6 1.3-2.9 2.9-2.9h.1c1.6 0 2.9 1.3 2.9 2.9v2.5c0 1.9 1.9 3.2 3.6 2.5l17.9-6.7c1.4-.5 2.9.7 2.6 2.2l-2.1 11.9c-.3 1.6-1.3 2.9-2.8 3.5l-3.5 1.5c-1 .4-1.8 1.2-2.2 2.2l-2.5 5.4-13.3-4.3z"/><path fill="#8C4BA9" d="M69.5 176.6c-2.1-2.3-20.7-23.3-20.7-43.3 0-8.6 3.3-22.7 15.4-23.9.5-.1 1.8 1.1 3.3 2.7 4.5 4.8 5.4 11.8 2.5 17.7-.5 1-.7 2.1-.7 3.5 0 9.1 9.4 22.9 15.3 29.5l-15.1 13.8z"/><path fill="#F9BE93" d="M92.8 28.9h-.5c-14.4 0-26.1 11.7-26.1 26.2v19.2c0 14 10 26 23.7 28.4l18.4 3.3c5.5 1 10.6-3.3 10.6-8.9v-42c0-14.5-11.6-26.2-26.1-26.2z"/><path fill="#434A53" d="M113.2 54.1c-4.5 1.6-8.3-2.2-8.3-2.2s-6.5 4.3-13.5 1.7c-7-2.6-12.1-4.6-15.9-.7l-.7 8.7c5 10.1-5.2 12.7-5.2 12.7v-8 12.4c-.2 5.8-.4 8.3-.4 8.3-2.1-3.9-4.1-9.2-4.1-9.2l-.1-.1s-2.9-9.7-3.4-20.8c-.5-13 8-16.9 8-16.9s-.4-8.5 12.5-13.4c12.4-4.6 20.6 1.4 20.7 1.4 14.1-.3 16.1 14.4 18.7 16.9 2.9 2.8 6 1.8 6 1.8s1.5 4.7-2.2 7.4c-4.8 3.5-12.1 0-12.1 0z"/><path fill="#F9BE93" d="M70.6 66.4h-4.3c-3.8 0-6.9 3.1-6.9 6.9v.1c0 3.8 3.1 6.9 6.9 6.9h4.3v-13.9z"/><path fill="#05BED5" d="M-40.5-270.7h124v124h-124z"/><path fill="#8C4BA9" d="M82.5-270.7h124v124h-124z"/><path fill="#B2347E" d="M206.5-270.7h124v124h-124z"/><path fill="#434A53" d="M330.5-270.7h124v124h-124z"/></svg>