<svg xmlns="http://www.w3.org/2000/svg" width="400" height="300" viewBox="0 0 400 300"><title>responsive</title><path d="M394,298H6a4,4,0,0,1-4-4V6A4,4,0,0,1,6,2H394a4,4,0,0,1,4,4V294A4,4,0,0,1,394,298Z" fill="#fff" stroke="#434a53" stroke-miterlimit="10" stroke-width="4"/><path d="M2,22H398v4H2V22Z" fill="#434a53"/><circle cx="14" cy="13" r="4" fill="#434a53"/><circle cx="26" cy="13" r="4" fill="#434a53"/><circle cx="38" cy="13" r="4" fill="#434a53"/><path d="M4,298a2,2,0,0,1-2-2V24H398V296a2,2,0,0,1-2,2H4Z" fill="#3455db"/><path d="M396,26V296H4V26H396m4-4H0V296a4,4,0,0,0,4,4H396a4,4,0,0,0,4-4V22Z" fill="#434a53"/><path d="M150,298a6,6,0,0,1-6-6V124a6,6,0,0,1,6-6H392a6,6,0,0,1,6,6V292a6,6,0,0,1-6,6H150Z" fill="#fff"/><path d="M392,120a4,4,0,0,1,4,4V292a4,4,0,0,1-4,4H150a4,4,0,0,1-4-4V124a4,4,0,0,1,4-4H392m0-4H150a8,8,0,0,0-8,8V292a8,8,0,0,0,8,8H392a8,8,0,0,0,8-8V124A8,8,0,0,0,392,116Z" fill="#434a53"/><path d="M158,131H384V285H158V131Z" fill="#639"/><path d="M326,298a6,6,0,0,1-6-6V156a6,6,0,0,1,6-6h66a6,6,0,0,1,6,6V292a6,6,0,0,1-6,6H326Z" fill="#fff"/><path d="M392,152a4,4,0,0,1,4,4V292a4,4,0,0,1-4,4H326a4,4,0,0,1-4-4V156a4,4,0,0,1,4-4h66m0-4H326a8,8,0,0,0-8,8V292a8,8,0,0,0,8,8h66a8,8,0,0,0,8-8V156A8,8,0,0,0,392,148Z" fill="#434a53"/><path d="M327,166h64V282H327V166Z" fill="#8b008b"/></svg>