<svg xmlns="http://www.w3.org/2000/svg" width="400" height="300" viewBox="0 0 400 300"><g><path fill="#fff" stroke="#434A53" stroke-width="4" stroke-miterlimit="10" d="M394 298h-388c-2.2 0-4-1.8-4-4v-288c0-2.2 1.8-4 4-4h388c2.2 0 4 1.8 4 4v288c0 2.2-1.8 4-4 4z"/><path fill="#434A53" d="M2 22h396v4h-396z"/><circle fill="#434A53" cx="14" cy="13" r="4"/><circle fill="#434A53" cx="26" cy="13" r="4"/><circle fill="#434A53" cx="38" cy="13" r="4"/></g><path fill="#05BED5" d="M4 298c-1.1 0-2-.9-2-2v-272h396v272c0 1.1-.9 2-2 2h-392z"/><path fill="#434A53" d="M396 26v270h-392v-270h392m4-4h-400v274c0 2.2 1.8 4 4 4h392c2.2 0 4-1.8 4-4v-274z"/><path fill="#fff" d="M150 298c-3.3 0-6-2.7-6-6v-168c0-3.3 2.7-6 6-6h242c3.3 0 6 2.7 6 6v168c0 3.3-2.7 6-6 6h-242z"/><path fill="#434A53" d="M392 120c2.2 0 4 1.8 4 4v168c0 2.2-1.8 4-4 4h-242c-2.2 0-4-1.8-4-4v-168c0-2.2 1.8-4 4-4h242m0-4h-242c-4.4 0-8 3.6-8 8v168c0 4.4 3.6 8 8 8h242c4.4 0 8-3.6 8-8v-168c0-4.4-3.6-8-8-8z"/><path fill="#8C4BA9" d="M158 131h226v154h-226z"/><path fill="#fff" d="M326 298c-3.3 0-6-2.7-6-6v-136c0-3.3 2.7-6 6-6h66c3.3 0 6 2.7 6 6v136c0 3.3-2.7 6-6 6h-66z"/><path fill="#434A53" d="M392 152c2.2 0 4 1.8 4 4v136c0 2.2-1.8 4-4 4h-66c-2.2 0-4-1.8-4-4v-136c0-2.2 1.8-4 4-4h66m0-4h-66c-4.4 0-8 3.6-8 8v136c0 4.4 3.6 8 8 8h66c4.4 0 8-3.6 8-8v-136c0-4.4-3.6-8-8-8z"/><path fill="#B2347E" d="M327 166h64v116h-64z"/></svg>