<svg xmlns="http://www.w3.org/2000/svg" width="400" height="300" viewBox="0 0 400 300"><title>semantic</title><path d="M394,298H6a4,4,0,0,1-4-4V6A4,4,0,0,1,6,2H394a4,4,0,0,1,4,4V294A4,4,0,0,1,394,298Z" fill="#fff"/><path d="M394,298H6a4,4,0,0,1-4-4V6A4,4,0,0,1,6,2H394a4,4,0,0,1,4,4V294A4,4,0,0,1,394,298Z" fill="none" stroke="#434a53" stroke-miterlimit="10" stroke-width="4"/><circle cx="14" cy="13" r="4" fill="#434a53"/><circle cx="26" cy="13" r="4" fill="#434a53"/><circle cx="38" cy="13" r="4" fill="#434a53"/><path d="M90,78h60v8H90V78Z" fill="#666"/><path d="M50,62H80v8H50V62Z" fill="#639"/><path d="M18,62h8v8H18V62Zm0,16h8v8H18V78Z" fill="#3455db"/><path d="M50,142H80v8H50v-8Z" fill="#639"/><path d="M18,94h8v8H18V94Zm0,48h8v8H18v-8Zm0,32h8v8H18v-8Z" fill="#3455db"/><path d="M90,190h80v8H90v-8Z" fill="#666"/><path d="M18,190h8v8H18v-8Z" fill="#3455db"/><path d="M90,206H310v8H90v-8Z" fill="#666"/><path d="M18,206h8v8H18v-8Z" fill="#3455db"/><path d="M58,78H82v8H58V78Zm100,0h24v8H158V78Z" fill="#8b008b"/><path d="M50,46H92v8H50V46Z" fill="#fff"/><path d="M18,46h8v8H18V46Z" fill="#3455db"/><path d="M90,94h70v8H90V94Z" fill="#666"/><path d="M58,94H82v8H58V94Zm110,0h24v8H168V94Z" fill="#8b008b"/><path d="M90,110h60v8H90v-8Z" fill="#666"/><path d="M18,110h8v8H18v-8Zm0,16h8v8H18v-8Z" fill="#3455db"/><path d="M58,110H82v8H58v-8Zm100,0h24v8H158v-8Z" fill="#8b008b"/><path d="M90,126h70v8H90v-8Z" fill="#666"/><path d="M58,126H82v8H58v-8Zm110,0h24v8H168v-8Z" fill="#8b008b"/><path d="M50,158H80v8H50v-8Z" fill="#639"/><path d="M18,158h8v8H18v-8Z" fill="#3455db"/><path d="M58,174H82v8H58v-8Z" fill="#8b008b"/><path d="M70,222H310v8H70v-8Z" fill="#666"/><path d="M18,222h8v8H18v-8Z" fill="#3455db"/><path d="M70,238H190v8H70v-8Z" fill="#666"/><path d="M18,238h8v8H18v-8Zm0,16h8v8H18v-8Z" fill="#3455db"/><path d="M58,254H82v8H58v-8Z" fill="#8b008b"/><path d="M50,270H80v8H50v-8Z" fill="#639"/><path d="M18,270h8v8H18v-8Z" fill="#3455db"/><path d="M70,190H82v8H70v-8Zm108,0h12v8H178v-8ZM70,206H82v8H70v-8Zm128,32h12v8H198v-8Z" fill="#8b008b"/></svg>