<svg xmlns="http://www.w3.org/2000/svg" width="400" height="300" viewBox="0 0 400 300"><title>styles</title><path d="M394,299H6a4,4,0,0,1-4-4V5A4,4,0,0,1,6,1H394a4,4,0,0,1,4,4V295.09A4,4,0,0,1,394,299Z" fill="#3455db"/><path d="M126,49.66H39V250.34H179V100.84H126V49.66Zm0,0v51.17h53L152,74.75Z" fill="#fff" stroke="#434a53" stroke-linejoin="round" stroke-width="4"/><path d="M41,158H177v90.3H41V158Z" fill="#639"/><path d="M41,158H177" fill="none" stroke="#434a53" stroke-miterlimit="10" stroke-width="4"/><path d="M76,215.62a2.56,2.56,0,0,1-1.9-.8,2.92,2.92,0,0,1,0-4,2.65,2.65,0,0,1,3.8,0,2.92,2.92,0,0,1,0,4A2.36,2.36,0,0,1,76,215.62Zm11,0a3.38,3.38,0,0,1-3.1-1.3,6.44,6.44,0,0,1-.9-3.61v-21h4.1V210.9a1.62,1.62,0,0,0,.3,1.1,0.86,0.86,0,0,0,.6.3h0.3a0.75,0.75,0,0,0,.4-0.1l0.5,3.11a6.85,6.85,0,0,1-2.2.3h0Zm12.7,0a9.31,9.31,0,0,1-3.4-.6,7.5,7.5,0,0,1-2.8-1.81,9.76,9.76,0,0,1-1.9-2.91,11.39,11.39,0,0,1-.7-3.91,10.08,10.08,0,0,1,.7-3.91,10.28,10.28,0,0,1,1.8-2.91,6.76,6.76,0,0,1,2.6-1.81,8,8,0,0,1,3-.6,7.92,7.92,0,0,1,3.2.6,6.58,6.58,0,0,1,2.3,1.71,6.94,6.94,0,0,1,1.4,2.71,12.21,12.21,0,0,1,.5,3.41,4.9,4.9,0,0,1-.1,1.2c0,0.4-.1.6-0.1,0.9H95.1a6.13,6.13,0,0,0,1.7,3.71,4.74,4.74,0,0,0,3.5,1.3,6.63,6.63,0,0,0,2.1-.3,6.24,6.24,0,0,0,2-1l1.4,2.61a12.2,12.2,0,0,1-2.8,1.4,32.4,32.4,0,0,1-3.3.2h0Zm3.2-10.94a5.1,5.1,0,0,0-.9-3.21,3.16,3.16,0,0,0-2.7-1.2,4.1,4.1,0,0,0-2.8,1.1,5.14,5.14,0,0,0-1.5,3.31h7.9Zm12.2,10.94a9.2,9.2,0,0,1-3.6-.7,13.07,13.07,0,0,1-3.1-1.71l1.9-2.71a15.75,15.75,0,0,0,2.4,1.51,6.94,6.94,0,0,0,2.5.5,2.92,2.92,0,0,0,2.1-.6,1.81,1.81,0,0,0,.7-1.51,1.7,1.7,0,0,0-.3-1,2.18,2.18,0,0,0-.9-0.7l-1.2-.6-1.4-.6a14.14,14.14,0,0,1-1.8-.8,8.63,8.63,0,0,1-1.6-1,5.28,5.28,0,0,1-1.2-1.4,3.83,3.83,0,0,1-.4-1.91,4.88,4.88,0,0,1,1.7-3.81,7,7,0,0,1,4.7-1.51,8.78,8.78,0,0,1,3.3.6,11,11,0,0,1,2.6,1.51l-1.9,2.51a9.3,9.3,0,0,0-1.9-1.1,4.46,4.46,0,0,0-2-.4,3,3,0,0,0-2,.6,1.54,1.54,0,0,0-.6,1.4,1.23,1.23,0,0,0,.3.9,2.7,2.7,0,0,0,.8.7,3.33,3.33,0,0,0,1.2.5c0.4,0.2.9,0.3,1.4,0.5l1.8,0.7a8.63,8.63,0,0,1,1.6,1,4.44,4.44,0,0,1,1.2,1.51,4.69,4.69,0,0,1,0,4.21,4.32,4.32,0,0,1-1.3,1.71,6.59,6.59,0,0,1-2.2,1.2A5.84,5.84,0,0,1,115.1,215.62Zm15.5,0a9.2,9.2,0,0,1-3.6-.7,13.07,13.07,0,0,1-3.1-1.71l1.9-2.71a15.75,15.75,0,0,0,2.4,1.51,6.94,6.94,0,0,0,2.5.5,2.92,2.92,0,0,0,2.1-.6,1.81,1.81,0,0,0,.7-1.51,1.7,1.7,0,0,0-.3-1,2.18,2.18,0,0,0-.9-0.7l-1.2-.6-1.4-.6a14.14,14.14,0,0,1-1.8-.8,8.63,8.63,0,0,1-1.6-1,5.28,5.28,0,0,1-1.2-1.4,3.83,3.83,0,0,1-.4-1.91,4.88,4.88,0,0,1,1.7-3.81,7,7,0,0,1,4.7-1.51,8.78,8.78,0,0,1,3.3.6,11,11,0,0,1,2.6,1.51l-1.9,2.51a9.3,9.3,0,0,0-1.9-1.1,4.46,4.46,0,0,0-2-.4,3,3,0,0,0-2,.6,1.54,1.54,0,0,0-.6,1.4,1.23,1.23,0,0,0,.3.9,2.7,2.7,0,0,0,.8.7,3.33,3.33,0,0,0,1.2.5c0.4,0.2.9,0.3,1.4,0.5l1.8,0.7a8.63,8.63,0,0,1,1.6,1,4.44,4.44,0,0,1,1.2,1.51,4.69,4.69,0,0,1,0,4.21,4.32,4.32,0,0,1-1.3,1.71,6.59,6.59,0,0,1-2.2,1.2,5.84,5.84,0,0,1-2.8.5h0Z" fill="#fff"/><path d="M308,49.66H221V250.34H361V100.84H308V49.66Zm0,0v51.17h53L334,74.75Z" fill="#fff" stroke="#434a53" stroke-linejoin="round" stroke-width="4"/><path d="M223,158H359v90.3H223V158Z" fill="#8b008b"/><path d="M223,158H359" fill="none" stroke="#434a53" stroke-miterlimit="10" stroke-width="4"/><path d="M262,215.62a2.56,2.56,0,0,1-1.9-.8,2.92,2.92,0,0,1,0-4,2.65,2.65,0,0,1,3.8,0,2.92,2.92,0,0,1,0,4A2.36,2.36,0,0,1,262,215.62Zm14.1,0a9.71,9.71,0,0,1-3.4-.6,7.12,7.12,0,0,1-2.7-1.81,9.51,9.51,0,0,1-1.8-2.91,12.34,12.34,0,0,1-.6-3.91,9.43,9.43,0,0,1,.7-3.91,9.76,9.76,0,0,1,1.9-2.91,8.39,8.39,0,0,1,2.8-1.81,9.31,9.31,0,0,1,3.4-.6,7,7,0,0,1,3,.6,11.84,11.84,0,0,1,2.2,1.4l-2,2.71c-0.5-.4-1-0.7-1.4-1a4,4,0,0,0-1.5-.3,4.31,4.31,0,0,0-3.5,1.61,7.81,7.81,0,0,0,0,8.63,4.12,4.12,0,0,0,3.4,1.61,3.5,3.5,0,0,0,2-.5,9.9,9.9,0,0,0,1.7-1.1l1.7,2.71a7.84,7.84,0,0,1-2.8,1.61,8.7,8.7,0,0,1-3.1.5h0Zm14.5,0a9.2,9.2,0,0,1-3.6-.7,13.07,13.07,0,0,1-3.1-1.71l1.9-2.71a15.75,15.75,0,0,0,2.4,1.51,6.94,6.94,0,0,0,2.5.5,2.92,2.92,0,0,0,2.1-.6,1.81,1.81,0,0,0,.7-1.51,1.7,1.7,0,0,0-.3-1,2.18,2.18,0,0,0-.9-0.7l-1.2-.6-1.4-.6a14.14,14.14,0,0,1-1.8-.8,8.63,8.63,0,0,1-1.6-1,5.28,5.28,0,0,1-1.2-1.4,3.83,3.83,0,0,1-.4-1.91,4.88,4.88,0,0,1,1.7-3.81,7,7,0,0,1,4.7-1.51,8.78,8.78,0,0,1,3.3.6,11,11,0,0,1,2.6,1.51l-1.9,2.51a9.3,9.3,0,0,0-1.9-1.1,4.46,4.46,0,0,0-2-.4,3,3,0,0,0-2,.6,1.54,1.54,0,0,0-.6,1.4,1.23,1.23,0,0,0,.3.9,2.7,2.7,0,0,0,.8.7,3.33,3.33,0,0,0,1.2.5c0.4,0.2.9,0.3,1.4,0.5l1.8,0.7a8.63,8.63,0,0,1,1.6,1,4.44,4.44,0,0,1,1.2,1.51,4.69,4.69,0,0,1,0,4.21,4.32,4.32,0,0,1-1.3,1.71,6.59,6.59,0,0,1-2.2,1.2,5.61,5.61,0,0,1-2.8.5h0Zm15.5,0a9.2,9.2,0,0,1-3.6-.7,13.07,13.07,0,0,1-3.1-1.71l1.9-2.71a15.75,15.75,0,0,0,2.4,1.51,6.94,6.94,0,0,0,2.5.5,2.92,2.92,0,0,0,2.1-.6,1.81,1.81,0,0,0,.7-1.51,1.7,1.7,0,0,0-.3-1,2.18,2.18,0,0,0-.9-0.7l-1.2-.6-1.4-.6a14.14,14.14,0,0,1-1.8-.8,8.63,8.63,0,0,1-1.6-1,5.28,5.28,0,0,1-1.2-1.4,3.83,3.83,0,0,1-.4-1.91,4.88,4.88,0,0,1,1.7-3.81,7,7,0,0,1,4.7-1.51,8.78,8.78,0,0,1,3.3.6,11,11,0,0,1,2.6,1.51l-1.9,2.51a9.3,9.3,0,0,0-1.9-1.1,4.46,4.46,0,0,0-2-.4,3,3,0,0,0-2,.6,1.54,1.54,0,0,0-.6,1.4,1.23,1.23,0,0,0,.3.9,2.7,2.7,0,0,0,.8.7,3.33,3.33,0,0,0,1.2.5c0.4,0.2.9,0.3,1.4,0.5l1.8,0.7a8.63,8.63,0,0,1,1.6,1,4.44,4.44,0,0,1,1.2,1.51,4.69,4.69,0,0,1,0,4.21,4.32,4.32,0,0,1-1.3,1.71,6.59,6.59,0,0,1-2.2,1.2,5.84,5.84,0,0,1-2.8.5h0Z" fill="#fff"/><path d="M394,298H6a4,4,0,0,1-4-4V6A4,4,0,0,1,6,2H394a4,4,0,0,1,4,4V294A4,4,0,0,1,394,298Z" fill="none" stroke="#434a53" stroke-miterlimit="10" stroke-width="4"/></svg>