<?xml version="1.0" encoding="utf-8"?>
<!-- Generator: Adobe Illustrator 18.1.1, SVG Export Plug-In . SVG Version: 6.00 Build 0)  -->
<!DOCTYPE svg PUBLIC "-//W3C//DTD SVG 1.1//EN" "http://www.w3.org/Graphics/SVG/1.1/DTD/svg11.dtd">
<svg version="1.1" id="Layer_1" xmlns="http://www.w3.org/2000/svg" xmlns:xlink="http://www.w3.org/1999/xlink" x="0px" y="0px"
	 width="400px" height="300px" viewBox="-311 151 400 300" enable-background="new -311 151 400 300" xml:space="preserve">
<g>
	<path fill="#FFFFFF" stroke="#434A53" stroke-width="4" stroke-miterlimit="10" d="M83,449h-388c-2.2,0-4-1.8-4-4V157
		c0-2.2,1.8-4,4-4H83c2.2,0,4,1.8,4,4v288C87,447.2,85.2,449,83,449z"/>
	<circle fill="#434A53" cx="-297" cy="164" r="4"/>
	<circle fill="#434A53" cx="-285" cy="164" r="4"/>
	<circle fill="#434A53" cx="-273" cy="164" r="4"/>
	<line fill="none" stroke="#434A53" stroke-width="4" stroke-miterlimit="10" x1="-309" y1="175" x2="87" y2="175"/>
</g>
<rect x="-296" y="313" fill="#05BED5" width="100" height="10"/>
<rect x="-296" y="393" fill="#05BED5" width="100" height="20"/>
<rect x="-296" y="196" fill="#434A53" width="100" height="10"/>
<rect x="-296" y="216" fill="#434A53" width="80" height="8"/>
<rect x="-296" y="234" fill="#434A53" width="70" height="6"/>
<rect x="-296" y="250" fill="#434A53" width="60" height="4"/>
<rect x="-296" y="284" fill="#434A53" width="372" height="4"/>
<rect x="-296" y="292" fill="#434A53" width="372" height="4"/>
<rect x="-296" y="266" fill="#434A53" width="372" height="8"/>
<rect x="-186" y="313" fill="#05BED5" width="100" height="10"/>
<rect x="-76" y="313" fill="#05BED5" width="100" height="10"/>
<rect x="-186" y="393" fill="#8C4BA9" width="100" height="20"/>
<rect x="-76" y="393" fill="#B2347E" width="100" height="20"/>
<g>
	<rect x="-295" y="334" fill="#FFFFFF" width="370" height="18"/>
	<path fill="#434A53" d="M74,335v16h-368v-16H74 M76,333h-372v20H76V333L76,333z"/>
</g>
<g>
	<rect x="-295" y="364" fill="#FFFFFF" width="370" height="18"/>
	<path fill="#434A53" d="M74,365v16h-368v-16H74 M76,363h-372v20H76V363L76,363z"/>
</g>
<rect x="-296" y="300" fill="#434A53" width="118" height="4"/>
</svg>
