<svg xmlns="http://www.w3.org/2000/svg" width="400" height="300" viewBox="0 0 400 300"><title>theme</title><path d="M394,298H6a4,4,0,0,1-4-4V6A4,4,0,0,1,6,2H394a4,4,0,0,1,4,4V294A4,4,0,0,1,394,298Z" fill="#fff" stroke="#434a53" stroke-miterlimit="10" stroke-width="4"/><circle cx="14" cy="13" r="4" fill="#434a53"/><circle cx="26" cy="13" r="4" fill="#434a53"/><circle cx="38" cy="13" r="4" fill="#434a53"/><line x1="2" y1="24" x2="398" y2="24" fill="none" stroke="#434a53" stroke-miterlimit="10" stroke-width="4"/><rect x="15" y="162" width="100" height="10" fill="#3455db"/><rect x="15" y="242" width="100" height="20" fill="#3455db"/><rect x="15" y="45" width="100" height="10" fill="#434a53"/><rect x="15" y="65" width="80" height="8" fill="#434a53"/><rect x="15" y="83" width="70" height="6" fill="#434a53"/><rect x="15" y="99" width="60" height="4" fill="#434a53"/><rect x="15" y="133" width="372" height="4" fill="#434a53"/><rect x="15" y="141" width="372" height="4" fill="#434a53"/><rect x="15" y="115" width="372" height="8" fill="#434a53"/><rect x="125" y="162" width="100" height="10" fill="#3455db"/><rect x="235" y="162" width="100" height="10" fill="#3455db"/><rect x="125" y="242" width="100" height="20" fill="#639"/><rect x="235" y="242" width="100" height="20" fill="#8b008b"/><rect x="16" y="183" width="370" height="18" fill="#fff"/><path d="M385,184v16H17V184H385m2-2H15v20H387V182h0Z" fill="#434a53"/><rect x="16" y="213" width="370" height="18" fill="#fff"/><path d="M385,214v16H17V214H385m2-2H15v20H387V212h0Z" fill="#434a53"/><rect x="15" y="149" width="118" height="4" fill="#434a53"/></svg>