<?xml version="1.0" standalone="no"?>
<!DOCTYPE svg PUBLIC "-//W3C//DTD SVG 20010904//EN"
 "http://www.w3.org/TR/2001/REC-SVG-20010904/DTD/svg10.dtd">
<svg version="1.0" xmlns="http://www.w3.org/2000/svg"
 width="512.000000pt" height="512.000000pt" viewBox="0 0 512.000000 512.000000"
 preserveAspectRatio="xMidYMid meet">
<metadata>
Created by potrace 1.11, written by Peter Selinger 2001-2013
</metadata>
<g transform="translate(0.000000,512.000000) scale(0.100000,-0.100000)"
fill="#000000" stroke="none">
<path d="M1440 3759 l0 -722 79 -78 80 -79 160 0 161 0 -5 -35 c-6 -41 -11
-80 -20 -150 -3 -27 -8 -66 -11 -85 -3 -19 -7 -55 -10 -80 -2 -25 -9 -79 -14
-120 -5 -41 -12 -91 -14 -110 -2 -19 -9 -75 -15 -125 -7 -49 -14 -110 -17
-135 -3 -25 -7 -56 -9 -70 -4 -25 -13 -98 -20 -155 -4 -30 -16 -133 -21 -170
-1 -11 -3 -26 -3 -32 -1 -10 -40 -13 -163 -13 l-161 0 -79 -80 -78 -80 0 -400
0 -400 1280 0 1280 0 0 401 0 402 -79 78 -80 79 -160 0 c-146 0 -161 2 -162
18 0 9 -2 26 -4 37 -2 11 -7 47 -10 80 -3 33 -8 67 -10 75 -2 8 -7 44 -10 80
-3 36 -8 72 -10 80 -2 8 -7 44 -10 80 -4 36 -9 73 -10 82 -2 9 -6 43 -10 75
-3 32 -8 72 -10 88 -4 28 -21 158 -30 235 -2 19 -7 53 -9 75 -3 22 -10 78 -16
125 -5 47 -13 100 -16 118 l-5 32 162 0 162 0 79 80 78 80 0 720 0 720 -240 0
-240 0 0 -240 0 -240 -160 0 -160 0 0 240 0 240 -320 0 -320 0 0 -240 0 -240
-160 0 -160 0 0 240 0 240 -240 0 -240 0 0 -721z"/>
</g>
</svg>
