<svg xmlns="http://www.w3.org/2000/svg" width="24" height="24" viewBox="0 0 24 24">
  <title>github</title>
  <path d="M12,2A10,10,0,0,0,8.84,21.49c.5.09.68-.22.68-.48s0-.87,0-1.7C6.73,19.91,6.14,18,6.14,18A2.65,2.65,0,0,0,5,16.5c-.91-.62.07-.61.07-.61a2.1,2.1,0,0,1,1.53,1,2.13,2.13,0,0,0,2.91.83,2.14,2.14,0,0,1,.63-1.34C8,16.17,5.62,15.31,5.62,11.48a3.87,3.87,0,0,1,1-2.68,3.6,3.6,0,0,1,.1-2.65s.84-.27,2.75,1a9.48,9.48,0,0,1,5,0c1.91-1.29,2.75-1,2.75-1a3.59,3.59,0,0,1,.1,2.65,3.86,3.86,0,0,1,1,2.68c0,3.84-2.34,4.69-4.57,4.93a2.39,2.39,0,0,1,.68,1.85c0,1.34,0,2.42,0,2.74s.18.58.69.48A10,10,0,0,0,12,2Z"/>
</svg>
