<svg xmlns="http://www.w3.org/2000/svg" width="24" height="24" viewBox="0 0 24 24">
  <title>twitter</title>
  <path d="M22.46,5.51A8.58,8.58,0,0,1,20,6.19a4.3,4.3,0,0,0,1.89-2.37,8.59,8.59,0,0,1-2.73,1,4.29,4.29,0,0,0-7.31,3.91A12.18,12.18,0,0,1,3,4.29,4.29,4.29,0,0,0,4.33,10a4.28,4.28,0,0,1-1.95-.54v.05a4.3,4.3,0,0,0,3.44,4.21,4.3,4.3,0,0,1-1.94.07,4.3,4.3,0,0,0,4,3,8.66,8.66,0,0,1-6.35,1.78A12.15,12.15,0,0,0,8.12,20.5,12.13,12.13,0,0,0,20.33,8.29c0-.19,0-.37,0-.56a8.72,8.72,0,0,0,2.14-2.22Z"/>
</svg>
