<svg xmlns="http://www.w3.org/2000/svg" width="400" height="300" viewBox="0 0 400 300"><path fill="#05BED5" d="M394 298.5h-388c-2.2 0-4-1.8-4-4v-289c0-2.2 1.8-4 4-4h388c2.2 0 4 1.8 4 4v289.1c0 2.1-1.8 3.9-4 3.9z"/><g fill="#fff" stroke="#434A53" stroke-width="4" stroke-linejoin="round" stroke-miterlimit="10"><path d="M126 50h-87v200h140v-149h-53zM126 50v51h53l-27-26z"/></g><path fill="#8C4BA9" d="M41 158h136v90h-136z"/><path stroke="#434A53" stroke-width="4" stroke-miterlimit="10" fill="none" d="M41 158h136"/><g fill="#fff"><path d="M76 215.4c-.8 0-1.4-.3-1.9-.8s-.8-1.2-.8-2 .3-1.5.8-2 1.2-.8 1.9-.8 1.4.3 1.9.8.8 1.2.8 2-.3 1.5-.8 2c-.5.6-1.2.8-1.9.8zM87 215.4c-1.5 0-2.5-.4-3.1-1.3-.6-.9-.9-2.1-.9-3.6v-20.9h4.1v21.1c0 .5.1.9.3 1.1.2.2.4.3.6.3h.3c.1 0 .2 0 .4-.1l.5 3.1c-.6.2-1.3.3-2.2.3zM99.7 215.4c-1.2 0-2.4-.2-3.4-.6-1.1-.4-2-1-2.8-1.8s-1.4-1.8-1.9-2.9c-.4-1.1-.7-2.4-.7-3.9 0-1.4.2-2.7.7-3.9.5-1.2 1.1-2.1 1.8-2.9s1.6-1.4 2.6-1.8c1-.4 2-.6 3-.6 1.2 0 2.3.2 3.2.6s1.7 1 2.3 1.7c.6.7 1.1 1.6 1.4 2.7.3 1 .5 2.2.5 3.4 0 .4 0 .8-.1 1.2 0 .4-.1.6-.1.9h-11.1c.2 1.6.8 2.8 1.7 3.7.9.9 2.1 1.3 3.5 1.3.8 0 1.5-.1 2.1-.3.7-.2 1.3-.5 2-1l1.4 2.6c-.8.6-1.8 1-2.8 1.4-1 .1-2.1.2-3.3.2zm3.2-10.9c0-1.4-.3-2.4-.9-3.2-.6-.8-1.5-1.2-2.7-1.2-1.1 0-2 .4-2.8 1.1-.8.7-1.3 1.8-1.5 3.3h7.9zM115.1 215.4c-1.2 0-2.4-.2-3.6-.7-1.2-.5-2.2-1-3.1-1.7l1.9-2.7c.8.6 1.6 1.1 2.4 1.5.8.3 1.6.5 2.5.5 1 0 1.7-.2 2.1-.6.5-.4.7-.9.7-1.5 0-.4-.1-.7-.3-1-.2-.3-.5-.5-.9-.7l-1.2-.6-1.4-.6c-.6-.2-1.2-.5-1.8-.8-.6-.3-1.1-.6-1.6-1s-.9-.9-1.2-1.4c-.3-.5-.4-1.2-.4-1.9 0-1.6.6-2.8 1.7-3.8 1.2-1 2.7-1.5 4.7-1.5 1.2 0 2.3.2 3.3.6 1 .4 1.8.9 2.6 1.5l-1.9 2.5c-.6-.5-1.3-.8-1.9-1.1-.6-.3-1.3-.4-2-.4-.9 0-1.5.2-2 .6s-.6.8-.6 1.4c0 .4.1.7.3.9.2.3.5.5.8.7.3.2.7.4 1.2.5.4.2.9.3 1.4.5l1.8.7c.6.3 1.1.6 1.6 1s.9.9 1.2 1.5c.3.6.5 1.3.5 2.1s-.2 1.5-.5 2.1c-.3.7-.7 1.2-1.3 1.7-.6.5-1.3.9-2.2 1.2-.7.4-1.7.5-2.8.5zM130.6 215.4c-1.2 0-2.4-.2-3.6-.7-1.2-.5-2.2-1-3.1-1.7l1.9-2.7c.8.6 1.6 1.1 2.4 1.5.8.3 1.6.5 2.5.5 1 0 1.7-.2 2.1-.6.5-.4.7-.9.7-1.5 0-.4-.1-.7-.3-1-.2-.3-.5-.5-.9-.7l-1.2-.6-1.4-.6c-.6-.2-1.2-.5-1.8-.8-.6-.3-1.1-.6-1.6-1s-.9-.9-1.2-1.4c-.3-.5-.4-1.2-.4-1.9 0-1.6.6-2.8 1.7-3.8 1.2-1 2.7-1.5 4.7-1.5 1.2 0 2.3.2 3.3.6 1 .4 1.8.9 2.6 1.5l-1.9 2.5c-.6-.5-1.3-.8-1.9-1.1-.6-.3-1.3-.4-2-.4-.9 0-1.5.2-2 .6s-.6.8-.6 1.4c0 .4.1.7.3.9.2.3.5.5.8.7.3.2.7.4 1.2.5.4.2.9.3 1.4.5l1.8.7c.6.3 1.1.6 1.6 1s.9.9 1.2 1.5c.3.6.5 1.3.5 2.1s-.2 1.5-.5 2.1c-.3.7-.7 1.2-1.3 1.7-.6.5-1.3.9-2.2 1.2-.7.4-1.7.5-2.8.5z"/></g><g fill="#fff" stroke="#434A53" stroke-width="4" stroke-linejoin="round" stroke-miterlimit="10"><path d="M308 50h-87v200h140v-149h-53zM308 50v51h53l-27-26z"/></g><path fill="#B2347E" d="M223 158h136v90h-136z"/><path stroke="#434A53" stroke-width="4" stroke-miterlimit="10" fill="none" d="M223 158h136"/><g fill="#fff"><path d="M262 215.4c-.8 0-1.4-.3-1.9-.8s-.8-1.2-.8-2 .3-1.5.8-2 1.2-.8 1.9-.8 1.4.3 1.9.8.8 1.2.8 2-.3 1.5-.8 2c-.5.6-1.2.8-1.9.8zM276.1 215.4c-1.2 0-2.3-.2-3.4-.6-1-.4-2-1-2.7-1.8s-1.4-1.8-1.8-2.9c-.4-1.2-.6-2.5-.6-3.9 0-1.5.2-2.8.7-3.9s1.1-2.1 1.9-2.9c.8-.8 1.8-1.4 2.8-1.8s2.2-.6 3.4-.6c1.2 0 2.1.2 3 .6.8.4 1.6.9 2.2 1.4l-2 2.7c-.5-.4-1-.7-1.4-1-.5-.2-1-.3-1.5-.3-1.4 0-2.6.5-3.5 1.6-.9 1.1-1.3 2.5-1.3 4.3 0 1.8.4 3.2 1.3 4.3.9 1.1 2 1.6 3.4 1.6.7 0 1.4-.1 2-.5.6-.3 1.2-.7 1.7-1.1l1.7 2.7c-.8.7-1.8 1.3-2.8 1.6-1.1.4-2.1.5-3.1.5zM290.6 215.4c-1.2 0-2.4-.2-3.6-.7-1.2-.5-2.2-1-3.1-1.7l1.9-2.7c.8.6 1.6 1.1 2.4 1.5.8.3 1.6.5 2.5.5 1 0 1.7-.2 2.1-.6.5-.4.7-.9.7-1.5 0-.4-.1-.7-.3-1-.2-.3-.5-.5-.9-.7l-1.2-.6-1.4-.6c-.6-.2-1.2-.5-1.8-.8-.6-.3-1.1-.6-1.6-1s-.9-.9-1.2-1.4c-.3-.5-.4-1.2-.4-1.9 0-1.6.6-2.8 1.7-3.8 1.2-1 2.7-1.5 4.7-1.5 1.2 0 2.3.2 3.3.6 1 .4 1.8.9 2.6 1.5l-1.9 2.5c-.6-.5-1.3-.8-1.9-1.1-.6-.3-1.3-.4-2-.4-.9 0-1.5.2-2 .6s-.6.8-.6 1.4c0 .4.1.7.3.9.2.3.5.5.8.7.3.2.7.4 1.2.5.4.2.9.3 1.4.5l1.8.7c.6.3 1.1.6 1.6 1s.9.9 1.2 1.5c.3.6.5 1.3.5 2.1s-.2 1.5-.5 2.1c-.3.7-.7 1.2-1.3 1.7-.6.5-1.3.9-2.2 1.2-.7.4-1.6.5-2.8.5zM306.1 215.4c-1.2 0-2.4-.2-3.6-.7-1.2-.5-2.2-1-3.1-1.7l1.9-2.7c.8.6 1.6 1.1 2.4 1.5.8.3 1.6.5 2.5.5 1 0 1.7-.2 2.1-.6.5-.4.7-.9.7-1.5 0-.4-.1-.7-.3-1-.2-.3-.5-.5-.9-.7l-1.2-.6-1.4-.6c-.6-.2-1.2-.5-1.8-.8-.6-.3-1.1-.6-1.6-1s-.9-.9-1.2-1.4c-.3-.5-.4-1.2-.4-1.9 0-1.6.6-2.8 1.7-3.8 1.2-1 2.7-1.5 4.7-1.5 1.2 0 2.3.2 3.3.6 1 .4 1.8.9 2.6 1.5l-1.9 2.5c-.6-.5-1.3-.8-1.9-1.1-.6-.3-1.3-.4-2-.4-.9 0-1.5.2-2 .6s-.6.8-.6 1.4c0 .4.1.7.3.9.2.3.5.5.8.7.3.2.7.4 1.2.5.4.2.9.3 1.4.5l1.8.7c.6.3 1.1.6 1.6 1s.9.9 1.2 1.5c.3.6.5 1.3.5 2.1s-.2 1.5-.5 2.1c-.3.7-.7 1.2-1.3 1.7-.6.5-1.3.9-2.2 1.2-.7.4-1.7.5-2.8.5z"/></g><path stroke="#434A53" stroke-width="4" stroke-miterlimit="10" d="M394 298h-388c-2.2 0-4-1.8-4-4v-288c0-2.2 1.8-4 4-4h388c2.2 0 4 1.8 4 4v288c0 2.2-1.8 4-4 4z" fill="none"/></svg>