<?xml version="1.0" standalone="no"?>
<!DOCTYPE svg PUBLIC "-//W3C//DTD SVG 1.1//EN" "http://www.w3.org/Graphics/SVG/1.1/DTD/svg11.dtd" >
<svg xmlns="http://www.w3.org/2000/svg">
<metadata>Generated by IcoMoon</metadata>
<defs>
<font id="icons" horiz-adv-x="1024">
<font-face units-per-em="1024" ascent="960" descent="-64" />
<missing-glyph horiz-adv-x="1024" />
<glyph unicode="&#x20;" d="" horiz-adv-x="512" />
<glyph unicode="&#xe600;" d="M965.568 960h-907.072c-32.16 0-58.496-26.304-58.496-58.56v-907.040c0-32.032 26.336-58.4 58.496-58.4h907.072c32.032 0 58.432 26.368 58.432 58.4v907.040c0 32.256-26.4 58.56-58.432 58.56zM304.576 72.576h-155.68v501.568h155.68v-501.568zM226.72 642.72c-49.888 0-90.208 40.48-90.208 90.4 0 49.888 40.32 90.304 90.208 90.304 49.792 0 90.208-40.512 90.208-90.304 0-49.92-40.416-90.4-90.208-90.4zM887.456 72.576h-155.456v243.872c0 58.24-1.12 132.992-80.896 132.992-80.992 0-93.344-63.36-93.344-128.736v-248.096h-155.584v501.536h149.312v-68.448h2.080c20.8 39.36 71.552 80.992 147.328 80.992 157.472 0 186.56-103.872 186.56-239.008v-275.104z" />
<glyph unicode="&#xe601;" d="M965.568 960h-907.072c-32.16 0-58.496-26.304-58.496-58.56v-907.040c0-32 26.336-58.4 58.496-58.4h907.072c32 0 58.432 26.368 58.432 58.4v907.040c0 32.256-26.4 58.56-58.432 58.56zM869.12 385.6h-140.704v-376.416h-143.264v376.416h-99.52v135.52h99.52c0 0 0 55.552 0 115.872 0 91.008 58.816 174.368 194.24 174.368 54.784 0 95.424-5.088 95.424-5.088l-3.264-126.528c0 0-41.28 0.32-86.496 0.32-48.8 0-56.672-22.496-56.672-59.84 0-5.632 0-6.816 0-6.24 0-10.272 0-35.36 0-92.768h147.104l-6.368-135.616z" />
<glyph unicode="&#xe602;" d="M768 64h256v-64h-256v64zM448 64h256v-64h-256v64zM128 64h256v-64h-256v64z" />
<glyph unicode="&#xe603;" d="M448 640h256v-640h-256v640zM128 384h256v-384h-256v384z" />
<glyph unicode="&#xe604;" d="M64 384h256v-384h-256v384z" />
<glyph unicode="&#xe605;" d="M704 896h256v-896h-256v896zM384 640h256v-640h-256v640zM64 384h256v-384h-256v384z" />
<glyph unicode="&#xe606;" d="M992 746.784c-35.36-15.68-73.216-26.24-113.056-31.008 40.704 24.32 71.872 62.88 86.528 108.832-37.984-22.56-80.16-38.976-124.928-47.776-35.904 38.304-87.008 62.208-143.616 62.208-108.704 0-196.768-88.128-196.768-196.768 0-15.424 1.728-30.464 5.056-44.8-163.488 8.128-308.512 86.4-405.6 205.504-16.928-29.024-26.592-62.816-26.592-98.88 0-68.32 34.72-128.512 87.584-163.808-32.288 1.024-62.656 9.824-89.184 24.608 0-0.864 0-1.664 0-2.528 0-95.296 67.84-174.816 157.792-192.896-16.448-4.48-33.888-6.944-51.808-6.944-12.704 0-24.992 1.28-37.024 3.584 25.088-78.176 97.728-135.040 183.776-136.672-67.296-52.768-152.16-84.288-244.32-84.288-15.84 0-31.52 0.992-46.944 2.784 87.168-55.808 190.496-88.352 301.632-88.352 361.984 0 559.84 299.776 559.84 559.808 0 8.544-0.192 17.088-0.544 25.504 38.368 27.712 71.776 62.336 98.176 101.888z" />
<glyph unicode="&#xe609;" d="M64 384h896v-128h-896v128zM64 192h896v-128h-896v128z" />
<glyph unicode="&#xe60a;" d="M131.456 960h761.088c72.352 0 131.456-59.2 131.456-131.424v-761.12c0-72.288-59.104-131.424-131.456-131.424h-761.088c-72.352 0-131.456 59.136-131.456 131.424v761.12c0 72.224 59.104 131.424 131.456 131.424v0zM745.92 846.144c-25.344 0-46.080-20.736-46.080-46.016v-110.336c0-25.44 20.768-46.144 46.080-46.144h115.744c25.376 0 46.144 20.672 46.144 46.144v110.336c0 25.28-20.736 46.016-46.144 46.016h-115.744zM908.16 526.944h-90.112c8.64-27.776 13.216-57.344 13.216-87.84 0-170.336-142.496-308.288-318.304-308.288-175.776 0-318.208 137.984-318.208 308.288 0 30.56 4.544 60.096 13.088 87.84h-94.016v-432.512c0-22.4 18.304-40.672 40.64-40.672h713.088c22.368 0 40.64 18.336 40.64 40.672v432.512h-0.032zM512.96 649.472c-113.536 0-205.6-89.216-205.6-199.264 0-110.080 92.064-199.296 205.6-199.296 113.568 0 205.696 89.216 205.696 199.296 0 110.048-92.096 199.264-205.696 199.264z" />
<glyph unicode="&#xe60b;" d="M940.096 115.712l-200.256 200.256c41.024 59.648 65.216 131.776 65.216 209.472 0 204.352-166.208 370.56-370.56 370.56-204.352 0-370.496-166.208-370.496-370.56 0-204.288 166.144-370.496 370.496-370.496 77.696 0 149.824 24.128 209.472 65.152l200.256-200.256c13.312-13.184 30.656-19.84 48-19.84s34.688 6.656 47.872 19.904c26.56 26.432 26.56 69.376 0 95.808zM199.552 525.44c0 129.536 105.408 234.944 234.944 234.944 129.472 0 234.88-105.408 234.88-234.944 0-129.536-105.408-234.88-234.88-234.88s-234.944 105.408-234.944 234.88z" />
<glyph unicode="&#xe60d;" d="M809.632 782.272l33.92 4.736c27.52 3.84 46.688 29.248 42.848 56.768-3.872 27.552-29.376 46.72-56.736 42.88l-157.44-21.952c-25.344-3.552-44-25.568-43.328-51.136l3.936-149.6c0.672-27.296 23.072-48.96 50.24-48.96 0.448 0 0.928 0 1.344 0.032 27.776 0.736 49.696 23.84 48.96 51.616l-1.28 49.792c80.192-65.696 127.36-163.424 127.36-268.416 0-191.552-155.84-347.392-347.392-347.392-27.776 0-50.304-22.528-50.304-50.304 0-27.776 22.528-50.304 50.304-50.304 247.040 0 448 200.96 448 447.968-0.032 129.184-55.52 249.856-150.432 334.272zM343.52 274.656c-27.744-1.216-49.28-24.672-48.096-52.416l2.016-46.656c-82.848 65.184-132.832 164.48-132.832 272.416 0 191.584 155.84 347.424 347.424 347.424 27.776 0 50.304 22.528 50.304 50.304 0 27.776-22.528 50.304-50.304 50.304-247.040 0-448.032-200.96-448.032-448.032 0-134.016 59.296-258.304 159.104-342.368l-35.84-5.6c-27.456-4.32-46.208-30.048-41.92-57.504 3.872-24.8 25.28-42.496 49.632-42.496 2.592 0 5.216 0.192 7.84 0.576l157.056 24.576c25.28 3.968 43.552 26.304 42.464 51.872l-6.432 149.504c-1.184 27.776-24.256 49.792-52.384 48.096z" />
<glyph unicode="&#xe60e;" d="M733.6 706.848c-13.568 95.68-83.072 167.904-177.088 184.032-190.56 32.736-278.752-99.104-298.304-173.44-9.472-36 12.544-72.704 49.248-81.984 36.768-9.344 74.048 12.32 83.52 48.288 2.56 9.696 28 94.112 141.984 74.56 52.224-8.96 62.848-55.872 64.864-70.016 4.864-34.464-7.36-79.616-56.416-102.848-135.264-64.064-152.32-204.96-142.4-270.496 4.992-33.376 34.144-57.12 67.584-57.12 3.168 0 6.336 0.192 9.568 0.64 37.28 5.056 63.392 38.976 58.56 75.584-1.248 9.536-9.952 94.080 66.336 130.208 95.008 45.024 147.040 140.256 132.544 242.592zM543.264 81.92c0-45.243-37.379-81.92-83.488-81.92s-83.488 36.677-83.488 81.92c0 45.243 37.379 81.92 83.488 81.92 46.109 0 83.488-36.677 83.488-81.92z" />
<glyph unicode="&#xe60f;" d="M891.84 536.896h-108.512v177.76c0 19.264-15.648 34.752-35.104 35.328l-146.336 145.056c-1.408 18.368-16.576 32.96-35.616 32.96h-289.408c-19.968 0-36.16-15.936-36.16-35.552v-355.552h-108.544c-19.968 0-36.16-15.936-36.16-35.552v-320c0-19.648 16.192-35.552 36.16-35.552h108.512v-142.208c0-19.648 16.192-35.552 36.16-35.552h470.272c19.968 0 36.16 15.936 36.16 35.552v142.208h108.512c19.968 0 36.16 15.936 36.16 35.552v320c0.064 19.616-16.128 35.552-36.096 35.552zM602.432 818.752l69.12-68.512h-69.12v68.512zM313.056 856.896h217.056v-142.208c0-19.648 16.192-35.552 36.16-35.552h144.704v-142.208h-397.92v319.968zM710.944 39.104h-397.888v320h397.92v-320h-0.032zM855.648 216.896h-72.352v177.792c0 19.648-16.192 35.552-36.16 35.552h-470.272c-19.968 0-36.16-15.936-36.16-35.552v-177.792h-72.352v248.896h687.296v-248.896z" />
<glyph unicode="&#xe610;" d="M764.288 446.4l-508.288 449.6v-896z" />
<glyph unicode="&#xe611;" d="M832 448l-640 448v-896z" />
<glyph unicode="&#xe612;" d="M512.032 928c-265.12 0-480.032-214.912-480.032-480.032 0-196.512 118.176-365.312 287.296-439.616-1.344 33.568-0.192 73.76 8.352 110.272 9.28 38.912 61.76 261.472 61.76 261.472s-15.328 30.624-15.328 75.936c0 71.168 41.28 124.256 92.608 124.256 43.648 0 64.736-32.8 64.736-72.064 0-43.872-28-109.568-42.368-170.304-12-50.944 25.504-92.48 75.712-92.48 90.976 0 152.256 116.8 152.256 255.168 0 105.248-70.912 184-199.776 184-145.632 0-236.32-108.608-236.32-229.92 0-41.824 12.352-71.264 31.648-94.080 8.864-10.496 10.112-14.752 6.912-26.752-2.304-8.896-7.584-30.144-9.824-38.528-3.136-12.128-13.024-16.544-24-12-67.040 27.36-98.304 100.768-98.304 183.36 0 136.32 114.976 299.808 343.104 299.808 183.232 0 303.84-132.576 303.84-274.976 0-188.256-104.736-328.928-258.976-328.928-51.872 0-100.608 28-117.28 59.776 0 0-27.936-110.528-33.824-131.904-10.176-36.928-30.112-74.016-48.256-102.752 43.136-12.736 88.8-19.712 136.064-19.712 265.056 0 479.968 214.912 479.968 479.968 0 265.12-214.912 480.032-479.968 480.032z" />
<glyph unicode="&#xe613;" d="M519.168 502.208c112.48 0 204.032 88.32 204.032 196.896s-91.552 196.896-204.032 196.896c-112.512 0-204.064-88.32-204.064-196.896 0-108.576 91.52-196.896 204.064-196.896zM519.168 815.424c66.496 0 120.544-52.192 120.544-116.32s-54.048-116.32-120.544-116.32-120.576 52.192-120.576 116.32c0 64.128 54.080 116.32 120.576 116.32zM829.184 353.696c-62.432 63.616-160.288 94.304-290.848 94.304h-36.032c-364 0-374.24-248.416-374.304-252.064v-147.584c0-26.688 22.432-48.352 50.080-48.352h667.808c27.648 0 50.080 21.664 50.080 48.352l-0.064 144.16c0.192 3.616 4.192 88.864-66.72 161.184zM800 96h-576v98.24c0 16.416 19.52 157.76 278.304 157.76h36.032c100.928 0 175.968-20.416 218.944-63.136 41.76-41.568 42.72-88.8 42.72-92.928v-99.936z" />
<glyph unicode="&#xe614;" d="M576 896h320v-896h-320v896zM128 896h320v-896h-320v896z" />
<glyph unicode="&#xe616;" d="M511.68 513.632c57.12 0 103.584 48.16 103.584 107.392s-46.464 107.392-103.584 107.392-103.584-48.16-103.584-107.392 46.464-107.392 103.584-107.392zM511.68 665.76c23.776 0 43.136-20.064 43.136-44.736s-19.36-44.736-43.136-44.736c-23.808 0-43.168 20.064-43.168 44.736 0.032 24.672 19.36 44.736 43.168 44.736zM982.272 182.368l-161.152 221.312c-5.728 7.84-14.656 12.32-24.128 12.32h-161.344l42.848 65.504c4.896 6.592 9.44 13.536 12.672 19.232l3.712 5.696c1.6 2.464 2.848 5.12 3.648 7.872 15.264 30.688 23.328 65.056 23.328 99.84-0.032 120.096-94.304 217.856-210.144 217.856s-210.144-97.728-210.144-217.888c0-52.384 18.144-102.976 51.104-142.528l36.512-55.584h-162.784c-9.472 0-18.4-4.48-24.128-12.32l-164.192-225.536c-6.912-9.472-8.032-22.176-2.912-32.8 5.12-10.656 15.584-17.344 27.040-17.344h898.944c0.192 0 0.384 0 0.608 0 16.704 0 30.24 14.016 30.24 31.328 0 9.12-3.744 17.28-9.728 23.040zM511.712 769.344c82.528 0 149.696-69.632 149.696-155.232 0-26.24-6.432-52.16-18.56-74.944-0.448-0.8-0.832-1.664-1.184-2.496l-1.408-2.176c-2.944-5.088-6.176-10.016-10.688-16.16l-116.96-178.368-110.976 168.576c-0.704 1.056-1.472 2.080-2.272 3.072-24.064 28.288-37.312 64.704-37.312 102.496-0.032 85.6 67.104 155.232 149.664 155.232zM122.88 192l118.592 160h188.96l57.216-86.144c5.632-8.576 14.976-13.28 24.96-13.28 9.952 1.536 19.36 4.544 24.992 13.12l56.96 86.304h187.392l118.592-160h-777.664z" />
<glyph unicode="&#xe617;" d="M798.016 643.904h-60.192v60.48c-0.032 123.296-104.48 223.616-232.928 223.616s-232.864-100.32-232.864-223.616v-60.48h-46.048c-36.416 0-65.984-28.352-65.984-63.36v-549.184c0-35.008 29.568-63.36 65.984-63.36h572c36.448 0 66.016 28.352 66.016 63.36v549.184c0 35.008-29.568 63.36-65.984 63.36zM401.184 704.384c0 54.944 46.528 99.616 103.712 99.616s103.712-44.672 103.712-99.616v-60.48h-207.456v60.48h0.032zM732 94.72h-440v422.464h440v-422.464z" />
<glyph unicode="&#xe618;" d="M608 832c0-53.019-42.981-96-96-96s-96 42.981-96 96c0 53.019 42.981 96 96 96 53.019 0 96-42.981 96-96zM608 64c0-53.019-42.981-96-96-96s-96 42.981-96 96c0 53.019 42.981 96 96 96 53.019 0 96-42.981 96-96zM992 480c0-53.019-42.981-96-96-96s-96 42.981-96 96c0 53.019 42.981 96 96 96 53.019 0 96-42.981 96-96zM224 480c0-53.019-42.981-96-96-96s-96 42.981-96 96c0 53.019 42.981 96 96 96 53.019 0 96-42.981 96-96zM879.52 719.52c0-53.019-42.981-96-96-96s-96 42.981-96 96c0 53.019 42.981 96 96 96 53.019 0 96-42.981 96-96zM336.48 176.48c0-53.019-42.981-96-96-96s-96 42.981-96 96c0 53.019 42.981 96 96 96 53.019 0 96-42.981 96-96zM902.144 199.104c0-53.019-42.981-96-96-96s-96 42.981-96 96c0 53.019 42.981 96 96 96 53.019 0 96-42.981 96-96zM359.104 742.144c0-53.019-42.981-96-96-96s-96 42.981-96 96c0 53.019 42.981 96 96 96 53.019 0 96-42.981 96-96z" />
<glyph unicode="&#xe619;" d="M955.691 380.928c-35.328 0-68.267-29.952-68.267-66.987v-196.139h-750.933v660.437h311.467c35.328 0 64 32.597 64 69.504 0 37.077-28.672 69.547-64 69.547h-384c-35.328 0-64-30.037-64-67.029v-804.523c0-36.992 28.672-67.029 64-67.029h896c35.328 0 64 30.037 64 67.029v268.203c0.043 37.035-32.896 66.987-68.267 66.987zM960 917.333h-256c-35.328 0-64-32.512-64-69.504s28.672-69.504 64-69.504h77.312l-559.189-513.365c-26.496-24.448-29.056-65.579-5.717-93.397 12.672-15.061 30.336-22.101 48.085-22.101 15.019 0 25.813 5.803 38.016 17.024l584.875 543.872v-128.256c0-37.035 32.939-66.987 68.267-66.987 35.328 0 68.309 29.952 68.309 66.987v268.203c0.043 36.949-28.629 67.029-63.957 67.029z" />
<glyph unicode="&#xe61a;" d="M592.352 44h-181.44c-21.472 0-38.88-17.024-38.88-38.016s17.408-37.984 38.88-37.984h181.44c21.472 0 38.88 17.024 38.88 38.016s-17.44 37.984-38.88 37.984zM513.216 928c-141.824 0-257.216-116.8-257.216-260.992 0.064-4.16 2.496-102.176 75.168-183.296 14.816-19.232 46.464-65.92 63.808-110.304h-22.944c-21.472 0-38.88-17.024-38.88-38.016v-228.032c0-20.992 17.408-38.016 38.88-38.016h259.2c21.472 0 38.88 17.024 38.88 38.016v228.032c0 19.712-15.392 35.712-35.008 37.632 0.608 33.216 7.744 84.96 42.528 119.552 4.736 2.88 8.896 6.752 12.064 11.52 4.256 6.4 9.088 13.12 14.144 20.224 27.072 37.92 64.16 89.856 64.16 150.144 0 142.176-111.936 253.536-254.784 253.536zM592.352 246.72h-181.44v50.688h181.408v-50.688h0.032zM410.912 145.376v25.344h181.44v-25.344h-181.44zM640.064 567.872c-3.744-5.248-7.328-10.304-10.72-15.2-59.648-53.408-71.264-131.072-72.064-179.264h-80.48c-20.992 74.272-77.312 148.096-84.576 157.408-0.576 0.736-1.184 1.472-1.856 2.176-54.080 59.648-56.64 134.624-56.64 134.624 0 99.936 82.176 184.384 179.456 184.384 99.264 0 177.024-77.984 177.024-177.536 0.032-36.384-26.624-73.696-50.144-106.592z" />
<glyph unicode="&#xe61b;" d="M896 531.328c38.592 0 64 31.232 64 69.824v220.224c0 38.528-31.232 74.624-69.824 74.624h-229.888c-38.592 0-69.824-25.472-69.824-64s31.232-64 69.824-64h71.104l-204.8-207.232-209.664 207.232h41.856c38.592 0 69.824 25.472 69.824 64s-31.232 64-69.824 64h-220.224c-38.592 0-74.56-31.232-74.56-69.824v-229.888c0-38.528 25.408-69.824 64-69.824s64 31.232 64 69.824v71.168l221.824-219.456-221.824-224.192v71.104c0 38.528-25.408 69.824-64 69.824s-64-31.296-64-69.824v-220.224c0-38.528 31.232-74.688 69.824-74.688h229.888c38.592 0 69.824 25.472 69.824 64s-31.232 64-69.824 64h-41.92l204.8 207.232 209.728-207.232h-71.232c-38.592 0-69.824-25.472-69.824-64s31.232-64 69.824-64h220.224c38.528 0 74.688 31.232 74.688 69.824v229.888c0 38.528-25.408 69.824-64 69.824s-64-31.232-64-69.824v-41.792l-192.576 190.144 192.576 195.008v-41.92c0-38.528 25.408-69.824 64-69.824z" />
<glyph unicode="&#xe61c;" d="M212.288 320h41.92l-190.208-192.448v-127.552h98.176l221.824 224.192v-71.104c0-38.528 25.408-69.824 64-69.824s64 31.296 64 69.824v220.224c0 38.528-31.232 74.688-69.824 74.688h-229.888c-38.592 0-69.824-25.472-69.824-64s31.232-64 69.824-64zM811.712 576h-41.92l190.208 192.448v127.552h-98.176l-221.824-224.192v71.104c0 38.528-25.408 69.824-64 69.824s-64-31.296-64-69.824v-220.224c0-38.528 31.232-74.688 69.824-74.688h229.888c38.592 0 69.824 25.472 69.824 64s-31.232 64-69.824 64z" />
<glyph unicode="&#xe61d;" d="M921.6 960h-819.2c-56.576 0-102.4-45.856-102.4-102.368v-819.264c0-56.544 45.856-102.368 102.4-102.368h819.2c56.576 0 102.4 45.856 102.4 102.368v819.264c0 56.512-45.856 102.368-102.4 102.368zM341.344 226.112v443.744l392.512-221.888-392.512-221.856z" />
<glyph unicode="&#xe61e;" d="M917.664 914.4c-7.552 8.128-18.272 12.896-29.632 13.152-13.28 0.288-26.176 0.448-38.976 0.448-289.856 0-498.208-74.848-619.296-222.432-145.088-176.8-115.456-398.464-103.648-459.776-47.456-140.928-25.184-238.688-22.944-247.648 4.48-18.016 21.28-30.144 39.776-30.144 3.168 0 6.368 0.384 9.568 1.12 22.016 5.056 35.584 26.272 30.304 47.36-0.416 1.728-15.552 69.568 13.184 173.856 55.328-14.72 108.768-22.56 159.168-22.56 208.192 0 373.6 126.112 478.368 364.672 76.32 173.888 93.664 345.024 94.336 352.224 0.992 10.816-2.688 21.6-10.208 29.728zM294.080 656.96c86.912 105.92 230.368 168.352 427.008 186.624-279.616-150.944-436.064-308.864-522.4-446.912 4.576 78.944 26.72 176.576 95.392 260.288zM355.136 246.336c-41.664 0-86.304 6.432-132.832 18.496 66.144 153.664 227.872 357.28 611.392 547.808-33.568-172.448-146.56-566.304-478.56-566.304z" />
<glyph unicode="&#xe61f;" d="M337.152 504.64c-80.896 0-146.656 66.24-146.656 147.68s65.792 147.68 146.656 147.68c80.864 0 146.656-66.24 146.656-147.68 0-81.44-65.792-147.68-146.656-147.68zM337.152 739.584c-47.776 0-86.656-39.136-86.656-87.264s38.88-87.264 86.656-87.264c47.776 0 86.656 39.136 86.656 87.264s-38.88 87.264-86.656 87.264zM548 128h-480c-19.872 0-36 16.224-36 36.256v110.688c0 2.144 0.192 4.288 0.576 6.4 11.36 64 87.104 185.024 292.48 185.024 95.744 0 166.080-24.192 210.944-71.936 50.976-54.24 48.096-118.752 47.968-121.472l0.032-108.704c0-20.032-16.128-36.256-36-36.256zM104 200.512h408v74.432c0.064 3.104 0.832 39.456-29.216 70.624-30.88 32.032-83.328 48.288-155.872 48.288-182.496 0-218.048-104.352-222.944-123.008v-70.336h0.032zM774.176 477.76c-71.2 0-129.152 58.336-129.152 130.080 0 71.712 57.952 130.048 129.152 130.048 71.232 0 129.152-58.336 129.152-130.048 0.032-71.744-57.92-130.080-129.152-130.080zM774.176 677.44c-38.144 0-69.152-31.232-69.152-69.632s31.008-69.632 69.152-69.632c38.144 0 69.152 31.232 69.152 69.632 0.032 38.4-31.008 69.632-69.152 69.632zM956 128h-288c-19.872 0-36 16.224-36 36.256v110.688c0 1.568 0.096 3.136 0.32 4.672 0.032 0.352 5.824 51.2-18.272 89.76-5.12 8.224-6.784 18.144-4.608 27.584 2.208 9.44 8.064 17.6 16.288 22.656 11.52 7.104 23.648 9.824 33.408 12 3.552 0.8 7.168 1.536 10.496 2.688 18.976 6.688 38.816 8.064 62.72 8.064l29.12-0.192c79.936 0 140.288-21.056 180.928-62.624 49.216-50.336 49.728-110.56 49.632-117.28v-98.048c-0.032-20-16.16-36.224-36.032-36.224zM704 200.512h216v62.336c-0.064 11.072-5.152 106.848-156.928 106.848l-30.752 0.192c-16.192 0-28.96-0.64-38.24-3.744 13.536-42.56 10.976-82.368 9.92-93.12v-72.512z" />
<glyph unicode="&#xe620;" d="M688.96 448l234.304 234.368c48.96 48.896 48.96 128.128 0 177.024-48.768 48.896-128.192 48.896-176.96 0l-234.304-234.432-234.368 234.368c-48.768 48.896-128.192 48.896-176.96 0-48.96-48.896-48.96-128.128 0-177.024l234.368-234.304-234.304-234.304c-48.96-48.896-48.96-128.128 0-177.024 24.32-24.448 56.448-36.672 88.448-36.672s64.128 12.224 88.448 36.672l234.368 234.368 234.368-234.368c24.32-24.448 56.448-36.672 88.448-36.672s64.128 12.224 88.448 36.672c48.96 48.896 48.96 128.128 0 177.024l-234.304 234.304z" />
<glyph unicode="&#xe621;" d="M512 896c-247.040 0-448-200.992-448-448s200.96-448 448-448c247.040 0 448 200.96 448 448s-200.96 448-448 448zM512 82.112c-201.76 0-365.92 164.128-365.92 365.888s164.16 365.92 365.92 365.92c201.76 0 365.888-164.128 365.888-365.92 0-201.76-164.128-365.888-365.888-365.888zM527.552 672.288h-84.064v-266.208c0-23.2 18.816-42.048 42.048-42.048h238.208v84.064h-196.16v224.192zM524.736 223.904c0-12.177-9.871-22.048-22.048-22.048s-22.048 9.871-22.048 22.048c0 12.177 9.871 22.048 22.048 22.048 12.177 0 22.048-9.871 22.048-22.048zM288.832 447.68c0-12.513-10.143-22.656-22.656-22.656s-22.656 10.143-22.656 22.656c0 12.513 10.143 22.656 22.656 22.656 12.513 0 22.656-10.143 22.656-22.656z" />
<glyph unicode="&#xe622;" d="M512 68.16c-209.408 0-379.84 170.432-379.84 379.776 0 209.472 170.432 379.84 379.84 379.84s379.84-170.432 379.84-379.84c0-209.344-170.432-379.776-379.84-379.776zM512 0c247.424 0 448 200.512 448 447.936 0 247.488-200.576 448.064-448 448.064s-448-200.576-448-448.064c0-247.424 200.576-447.936 448-447.936z" />
<glyph unicode="&#xe623;" d="M64 447.936c0-247.424 200.576-447.936 448-447.936 247.36 0 448 200.512 448 447.936s-200.64 448.064-448 448.064c-247.424 0-448-200.64-448-448.064z" />
<glyph unicode="&#xe624;" d="M64 384h896v-128h-896v128zM64 192h896v-128h-896v128z" />
<glyph unicode="&#xe625;" d="M792.256 704h167.744l-370.304-512h-151.232l-374.464 512h167.808l282.24-251.584 278.208 251.584z" />
<glyph unicode="&#xe626;" d="M768 167.744v-167.744l-512 370.304v151.232l512 374.464v-167.808l-251.584-282.24 251.584-278.208z" />
<glyph unicode="&#xe627;" d="M256 728.256v167.744l512-370.304v-151.232l-512-374.464v167.808l251.584 282.24-251.584 278.208z" />
<glyph unicode="&#xe628;" d="M231.744 192h-167.744l370.304 512h151.232l374.464-512h-167.808l-282.24 251.584-278.208-251.584z" />
<glyph unicode="&#xe629;" d="M974.912 733.984c-59.264 43.808-132.352 66.016-217.248 66.016-104.736 0-200.128-34.048-242.496-51.68-54.88 33.632-119.52 51.68-193.856 51.68-138.24 0-260.416-59.392-265.536-61.92-14.624-7.2-23.776-21.632-23.776-37.408v-562.688c0-14.048 7.328-27.136 19.424-34.944s27.52-9.248 40.992-3.84c1.12 0.416 110.4 43.648 228.864 43.648 66.72 0 123.072-13.632 167.52-40.48 0.928-0.544 1.984-0.768 2.944-1.248 2.304-1.184 4.64-2.304 7.104-3.040 1.472-0.448 2.944-0.64 4.448-0.96 2.24-0.448 4.48-0.8 6.784-0.928 0.64 0.032 1.28-0.192 1.92-0.192 1.056 0 2.112 0.32 3.168 0.384 1.824 0.128 3.584 0.288 5.408 0.64 1.76 0.352 3.456 0.832 5.184 1.376 0.992 0.32 2.048 0.416 3.040 0.8 1.12 0.416 110.4 43.648 228.864 43.648 66.72 0 123.072-13.632 167.52-40.48 7.072-4.224 15.136-6.368 23.168-6.368 7.232 0 14.528 1.728 21.152 5.248 13.888 7.424 22.496 21.472 22.496 36.768v562.656c0 13.056-6.304 25.376-17.088 33.312zM119.264 196.768v476.768c38.304 15.328 117.952 42.464 202.016 42.464 57.024 0 106.368-12.48 147.072-37.152v-474.368c-43.84 14.88-93.056 22.432-147.072 22.432-79.040 0-152.864-16.128-202.016-30.144zM904.736 204.48c-43.84 14.88-93.056 22.432-147.072 22.432-79.040 0-152.896-16.128-202.016-30.144v476.768c38.304 15.328 117.952 42.464 202.016 42.464 57.024 0 106.368-12.48 147.072-37.152v-474.368z" />
<glyph unicode="&#xe62a;" d="M761.429 917.333h-541.568c-27.179 0-49.195-21.035-49.195-46.933v-657.067c0-25.899 22.059-46.933 49.195-46.933h110.805v-140.8c0-16.683 3.157-32.085 18.219-40.533 15.147-8.405 30.677-8.576 45.909-0.384l171.264 92.629 172.032-92.629c7.467-4.053 15.403-6.059 23.765-6.059 8.576 0 16.981 2.133 24.661 6.4 15.061 8.405 24.149 23.851 24.149 40.533v844.8c0 25.941-22.059 46.976-49.237 46.976zM256 277.333v554.667h85.333v-554.667h-85.333zM725.333 106.667l-135.467 65.451c-7.467 4.053-16.427 6.059-24.747 6.059s-12.032-2.005-19.541-6.059l-118.955-65.451v725.333h298.667v-725.333h0.043z" />
<glyph unicode="&#xe62b;" d="M948.896 768h-84.896v53.664c0 23.392-8.192 42.336-32 42.336s-32-18.944-32-42.336v-53.664h-160v53.664c0 23.392-8.192 42.336-32 42.336s-32-18.944-32-42.336v-53.664h-128v53.664c0 23.392-8.192 42.336-32 42.336s-32-18.944-32-42.336v-53.664h-160v53.664c0 23.392-8.192 42.336-32 42.336s-32-18.944-32-42.336v-53.664h-84.896c-23.808 0-43.104-33.888-43.104-57.28v-636.416c0-23.36 19.296-42.304 43.104-42.304h873.792c23.808 0 43.104 18.944 43.104 42.336v636.384c0 23.392-19.296 57.28-43.104 57.28zM352 448h96v-96h-96v96zM256 352h-128v96h128v-96zM448 256v-128h-96v128h96zM544 256h128v-128h-128v128zM544 352v96h128v-96h-128zM768 448h128v-96h-128v96zM128 672h768v-128h-768v128zM128 256h128v-128h-128v128zM768 128v128h128v-128h-128z" />
<glyph unicode="&#xe62c;" d="M616.832 349.312c-16.288 0-31.424-8.928-45.792-26.688v108.032h-44.256v-330.72h44.256v23.904c14.784-18.496 30.016-27.264 45.792-27.264 17.664 0 29.504 9.28 35.424 27.648 2.944 10.464 4.448 26.88 4.448 49.696v98.176c0 23.264-1.504 39.488-4.448 49.472-5.952 18.4-17.792 27.744-35.424 27.744zM612.416 170.336c0-22.208-6.56-33.216-19.328-33.216-7.264 0-14.656 3.552-22.048 11.040v150.176c7.456 7.36 14.784 10.848 22.048 10.848 12.768 0 19.328-11.328 19.328-33.632v-105.216zM444.096 158.016c-9.792-14.016-19.136-20.864-28-20.864-5.952 0-9.28 3.552-10.4 10.56-0.352 1.248-0.352 6.944-0.352 17.248v181.44h-44.288v-195.008c0-17.344 1.504-29.024 3.872-36.576 4.48-12.416 14.336-18.208 28.608-18.208 16.288 0 32.992 9.824 50.592 30.176v-26.88h44.352v246.464h-44.352v-188.352zM501.856 599.616c14.368 0 21.312 11.488 21.312 34.432v104.928c0 23.008-6.88 34.464-21.312 34.464-14.496 0-21.408-11.488-21.408-34.464v-104.928c0-22.912 6.912-34.432 21.408-34.432zM200.192 384.16h52.064v-284.224h49.312v284.224h53.056v46.496h-154.432zM757.888 349.312c-22.56 0-40.256-8.256-52.96-25.184-9.504-12.544-13.76-31.744-13.76-58.016v-86.336c0-26.272 4.832-45.728 14.272-57.984 12.736-16.768 30.4-25.152 53.536-25.152 23.168 0 41.376 8.736 53.568 26.656 5.408 7.936 8.896 16.864 10.4 26.752 0.384 4.64 0.96 14.368 0.96 28.8v6.496h-45.248c0-18.048-0.576-27.872-0.96-30.304-2.528-11.936-8.896-17.952-19.808-17.952-15.264 0-22.56 11.36-22.56 34.24v43.712h88.608v51.040c0 26.24-4.544 45.536-13.792 58.016-12.352 16.96-30.080 25.216-52.256 25.216zM779.616 252.192h-44.32v22.752c0 22.88 7.328 34.24 22.208 34.24 14.656 0 22.112-11.328 22.112-34.24v-22.752zM923.136 960h-821.728c-55.808 0-100.928-45.664-100.928-101.824l-0.448-820.384c0-56.192 45.088-101.824 100.8-101.824h821.696c55.712 0 100.864 45.632 100.864 101.824l0.608 820.384c0 56.16-45.216 101.824-100.864 101.824zM604.768 811.136h44.576v-183.36c0-10.56 0-16.096 0.576-17.632 1.056-6.944 4.48-10.56 10.496-10.56 8.96 0 18.368 7.072 28.256 21.184v190.368h44.8v-249.12h-44.8v27.168c-17.792-20.544-34.816-30.592-51.072-30.592-14.496 0-24.448 5.824-28.896 18.528-2.432 7.552-3.904 19.456-3.904 37.088l-0.032 196.928zM435.712 729.888c0 26.688 4.48 46.048 13.952 58.688 12.416 16.992 29.888 25.504 52.192 25.504 22.4 0 39.776-8.512 52.192-25.504 9.344-12.64 13.92-32 13.92-58.688v-87.136c0-26.656-4.544-46.176-13.92-58.688-12.384-16.992-29.824-25.472-52.192-25.472-22.304 0-39.744 8.48-52.192 25.472-9.504 12.512-13.952 32.032-13.952 58.688v87.136zM316.032 896.192l35.264-131.296 33.792 131.296h50.208l-59.744-198.88v-135.296h-49.632v135.296c-4.544 24.032-14.464 59.264-30.368 105.76-10.496 31.072-21.344 62.176-31.808 93.12h52.288zM865.6 85.088c-8.96-39.296-40.832-68.224-79.232-72.576-90.848-10.208-182.88-10.272-274.4-10.208-91.584-0.064-183.584 0-274.464 10.208-38.4 4.352-70.304 33.28-79.168 72.576-12.768 56-12.768 117.12-12.768 174.656 0 57.632 0.064 118.816 12.928 174.624 8.896 39.392 40.8 68.32 79.072 72.64 90.944 10.272 182.944 10.336 274.464 10.272 91.584 0.064 183.584 0 274.464-10.272 38.4-4.32 70.304-33.216 79.232-72.64 12.704-55.84 12.672-116.992 12.672-174.624 0.032-57.504 0.032-118.656-12.8-174.656z" />
<glyph unicode="&#xe62f;" d="M500.571 113.714q0 12-2.571 23.143t-5.429 20.571-10 19.714-12 17.429-15.143 16.857-15.714 14.571-18.286 14.571-17.714 13.143-18.857 13.143-17.429 12q-9.714 1.143-28.571 1.143-30.857 0-60.571-4t-61.714-14.286-56-26.286-39.429-42.857-15.429-61.143q0-38.857 20.286-69.429t53.143-48 68.857-26 72.571-8.571q33.714 0 64.286 7.143t57.429 22.286 42.571 42 15.714 62.857zM432 606.286q0 34.286-9.429 72.857t-26.857 74.571-48 59.429-68.286 23.429q-53.143 0-82.286-39.429t-29.143-94.286q0-26.857 6.571-56.571t20.286-59.429 32-53.429 44.571-38.571 55.429-14.857q55.429 0 80.286 34.571t24.857 91.714zM357.143 877.714h249.714l-77.143-45.143h-77.143q40.571-25.714 62.857-72t22.286-96.571q0-42.286-13.143-75.143t-32-52.857-37.714-36.857-32-34.857-13.143-38.571q0-14.857 9.429-29.143t24.571-27.429 33.429-27.429 36.571-31.714 33.429-37.714 24.571-48.571 9.429-60.857q0-91.429-80-161.143-86.857-74.857-240-74.857-33.714 0-68.286 5.714t-69.714 19.143-62 33.143-44 50.857-17.143 69.429q0 34.857 21.143 77.143 18.286 36.571 54.857 63.143t82.857 40.571 88.571 20.571 85.714 7.714q-36.571 47.429-36.571 85.143 0 6.857 1.143 13.429t2.857 11.143 4.571 12.286 4 12.286q-22.857-2.857-40-2.857-85.143 0-146 56t-60.857 140.571q0 80 54.286 143.143t133.714 80.857q53.714 11.429 106.857 11.429zM950.857 731.428v-73.143h-146.286v-146.286h-73.143v146.286h-146.286v73.143h146.286v146.286h73.143v-146.286h146.286z" horiz-adv-x="951" />
<glyph unicode="&#xe630;" d="M1024 545.143v-453.714q0-37.714-26.857-64.571t-64.571-26.857h-841.143q-37.714 0-64.571 26.857t-26.857 64.571v453.714q25.143-28 57.714-49.714 206.857-140.571 284-197.143 32.571-24 52.857-37.429t54-27.429 62.857-14h1.143q29.143 0 62.857 14t54 27.429 52.857 37.429q97.143 70.286 284.571 197.143 32.571 22.286 57.143 49.714zM1024 713.143q0-45.143-28-86.286t-69.714-70.286q-214.857-149.143-267.429-185.714-5.714-4-24.286-17.429t-30.857-21.714-29.714-18.571-32.857-15.429-28.571-5.143h-1.143q-13.143 0-28.571 5.143t-32.857 15.429-29.714 18.571-30.857 21.714-24.286 17.429q-52 36.571-149.714 104.286t-117.143 81.429q-35.429 24-66.857 66t-31.429 78q0 44.571 23.714 74.286t67.714 29.714h841.143q37.143 0 64.286-26.857t27.143-64.571z" />
<glyph unicode="&#xe631;" d="M416.768 38.016l-413.504 367.36 133.888 163.968 259.456-181.376 475.456 482.048 155.2-143.552z" />
<glyph unicode="&#xe632;" d="M0 576h1024v-256h-1024v256z" />
<glyph unicode="&#xe633;" d="M1024 576h-384v384h-256v-384h-384v-256h384v-384h256v384h384z" />
<glyph unicode="&#xe634;" d="M0 960h256v-256h-256v256zM384 960h256v-256h-256v256zM768 960h256v-256h-256v256zM0 576h256v-256h-256v256zM384 576h256v-256h-256v256zM768 576h256v-256h-256v256zM0 192h256v-256h-256v256zM384 192h256v-256h-256v256zM768 192h256v-256h-256v256z" />
<glyph unicode="&#xe635;" d="M256 874.667h768v-170.667h-768v170.667zM256 533.333h768v-170.667h-768v170.667zM256 192h768v-170.667h-768v170.667zM0 874.667h170.667v-170.667h-170.667v170.667zM0 533.333h170.667v-170.667h-170.667v170.667zM0 192h170.667v-170.667h-170.667v170.667z" />
</font>
</defs>
</svg>
