<?xml version="1.0" encoding="utf-8"?>
<!-- Generator: Adobe Illustrator 18.1.1, SVG Export Plug-In . SVG Version: 6.00 Build 0)  -->
<!DOCTYPE svg PUBLIC "-//W3C//DTD SVG 1.1//EN" "http://www.w3.org/Graphics/SVG/1.1/DTD/svg11.dtd">
<svg version="1.1" id="code" xmlns="http://www.w3.org/2000/svg" xmlns:xlink="http://www.w3.org/1999/xlink" x="0px" y="0px"
	 width="400px" height="300px" viewBox="0 0 400 300" enable-background="new 0 0 400 300" xml:space="preserve">
<path fill="#434A53" d="M396,300H4c-2.2,0-4-1.8-4-4V4c0-2.2,1.8-4,4-4h392c2.2,0,4,1.8,4,4v292C400,298.2,398.2,300,396,300z"/>
<rect x="78" y="200" fill="#FFFFFF" width="4" height="92"/>
<rect x="78" y="8" fill="#FFFFFF" width="4" height="92"/>
<rect x="318" y="8" fill="#FFFFFF" width="4" height="92"/>
<rect x="318" y="200" fill="#FFFFFF" width="4" height="92"/>
<rect x="8" y="188" fill="#FFFFFF" width="64" height="4"/>
<rect x="328" y="188" fill="#FFFFFF" width="64" height="4"/>
<rect x="8" y="108" fill="#FFFFFF" width="64" height="4"/>
<rect x="328" y="108" fill="#FFFFFF" width="64" height="4"/>
<path fill="#05BED5" d="M316,190H84c-2.2,0-4-1.8-4-4v-72c0-2.2,1.8-4,4-4h232c2.2,0,4,1.8,4,4v72C320,188.2,318.2,190,316,190z"/>
<rect x="310" y="100" fill="none" stroke="#C75495" stroke-width="4" stroke-miterlimit="10" width="20" height="20"/>
<rect x="310" y="180" fill="none" stroke="#C75495" stroke-width="4" stroke-miterlimit="10" width="20" height="20"/>
<rect x="70" y="100" fill="none" stroke="#C75495" stroke-width="4" stroke-miterlimit="10" width="20" height="20"/>
<rect x="70" y="180" fill="none" stroke="#C75495" stroke-width="4" stroke-miterlimit="10" width="20" height="20"/>
</svg>
