<svg xmlns="http://www.w3.org/2000/svg" width="400" height="300" viewBox="0 0 400 300"><path fill="#434A53" d="M396 300h-392c-2.2 0-4-1.8-4-4v-292c0-2.2 1.8-4 4-4h392c2.2 0 4 1.8 4 4v292c0 2.2-1.8 4-4 4z"/><path fill="#fff" d="M78 200h4v92h-4zM78 8h4v92h-4zM318 8h4v92h-4zM318 200h4v92h-4zM8 188h64v4h-64zM328 188h64v4h-64zM8 108h64v4h-64zM328 108h64v4h-64z"/><path fill="#05BED5" d="M316 190h-232c-2.2 0-4-1.8-4-4v-72c0-2.2 1.8-4 4-4h232c2.2 0 4 1.8 4 4v72c0 2.2-1.8 4-4 4z"/><path stroke="#B2347E" stroke-width="4" stroke-miterlimit="10" fill="none" d="M310 100h20v20h-20zM310 180h20v20h-20zM70 100h20v20h-20zM70 180h20v20h-20z"/></svg>