<?xml version="1.0" encoding="utf-8"?>
<!-- Generator: Adobe Illustrator 18.1.1, SVG Export Plug-In . SVG Version: 6.00 Build 0)  -->
<!DOCTYPE svg PUBLIC "-//W3C//DTD SVG 1.1//EN" "http://www.w3.org/Graphics/SVG/1.1/DTD/svg11.dtd">
<svg version="1.1" id="Layer_1" xmlns="http://www.w3.org/2000/svg" xmlns:xlink="http://www.w3.org/1999/xlink" x="0px" y="0px"
	 width="1024px" height="600px" viewBox="0 0 1024 600" enable-background="new 0 0 1024 600" xml:space="preserve">
<rect fill="#05BED5" width="1024" height="600"/>
<g>
	<polygon fill="#8C4BA9" points="928.4,406.4 987.4,503.2 1046.3,600 928.4,600 810.5,600 869.5,503.2 	"/>
	<polygon fill="#8C4BA9" points="810.5,383.4 869.5,480.2 928.4,577 810.5,577 692.6,577 751.6,480.2 	"/>
	<polygon fill="#8C4BA9" points="142.6,353 213.9,476.5 285.2,600 142.6,600 0,600 71.3,476.5 	"/>
	<polygon fill="#8C4BA9" points="878.5,442 937.5,521 996.4,600 878.5,600 760.6,600 819.6,521 	"/>
	<polygon fill="#8C4BA9" points="1011.6,498.2 1049.6,549.1 1087.6,600 1011.6,600 935.6,600 973.6,549.1 	"/>
	<polygon fill="#8C4BA9" points="247.2,442 306.2,521 365.1,600 247.2,600 129.3,600 188.3,521 	"/>
	<polygon fill="#8C4BA9" points="19.2,498.2 57.2,549.1 95.2,600 19.2,600 -56.8,600 -18.8,549.1 	"/>
</g>
<polygon fill="#B2347E" points="628.4,289.7 734.1,444.9 839.8,600 628.4,600 416.9,600 522.6,444.9 "/>
<g>
	<path fill="#B2347E" d="M546.2,369.8L508.8,296c-4,5.5-10.5,9.1-17.9,9.1c-3.5,0-6.8-0.8-9.7-2.2c-3.7,6.8-11,11.5-19.4,11.5
		c-4.7,0-9-1.5-12.6-4c-3.7,7.1-11.1,11.9-19.6,11.9c-9.1,0-16.9-5.5-20.3-13.4c-3.9,3.4-9,5.5-14.6,5.5c-8.5,0-15.8-4.8-19.5-11.8
		c-2.3,0.9-4.9,1.3-7.5,1.3c-6.9,0-13-3.2-17.1-8.1l-37.5,74.1L196.7,600h233h233L546.2,369.8z"/>
	<path fill="#FFFFFF" d="M367.8,303.8c2.6,0,5.2-0.5,7.5-1.3c3.7,7,11.1,11.8,19.5,11.8c5.6,0,10.7-2.1,14.6-5.5
		c3.4,7.9,11.2,13.4,20.3,13.4c8.5,0,15.9-4.8,19.6-11.9c3.6,2.5,7.9,4,12.6,4c8.4,0,15.6-4.6,19.4-11.5c2.9,1.4,6.2,2.2,9.7,2.2
		c7.3,0,13.9-3.6,17.9-9.1l-79.1-156.3l-79,156.1C354.7,300.7,360.9,303.8,367.8,303.8z"/>
</g>
<path fill="#FFFFFF" d="M597.7,349.8c1.3,0,2.6-0.2,3.7-0.5c1.8,2.6,5.5,4.3,9.7,4.3c2.8,0,5.3-0.8,7.2-2c1.7,2.9,5.5,4.9,10.1,4.9
	c4.2,0,7.9-1.8,9.7-4.4c1.8,0.9,3.9,1.4,6.2,1.4c4.1,0,7.7-1.7,9.6-4.2c1.4,0.5,3.1,0.8,4.8,0.8c3.6,0,6.9-1.3,8.8-3.3l-39.2-57.2
	l-39.1,57.4C591.2,348.9,594.3,349.8,597.7,349.8z"/>
</svg>
