<?xml version="1.0" encoding="utf-8"?>
<!-- Generator: Adobe Illustrator 18.1.1, SVG Export Plug-In . SVG Version: 6.00 Build 0)  -->
<!DOCTYPE svg PUBLIC "-//W3C//DTD SVG 1.1//EN" "http://www.w3.org/Graphics/SVG/1.1/DTD/svg11.dtd">
<svg version="1.1" id="code" xmlns="http://www.w3.org/2000/svg" xmlns:xlink="http://www.w3.org/1999/xlink" x="0px" y="0px"
	 width="400px" height="300px" viewBox="0 0 400 300" enable-background="new 0 0 400 300" xml:space="preserve">
<g>
	<g id="window_2_">
		<path fill="#FFFFFF" stroke="#434A53" stroke-width="4" stroke-miterlimit="10" d="M394,298H6c-2.2,0-4-1.8-4-4V6c0-2.2,1.8-4,4-4
			h388c2.2,0,4,1.8,4,4v288C398,296.2,396.2,298,394,298z"/>
		<rect x="2" y="22" fill="#434A53" width="396" height="4"/>
		<circle fill="#434A53" cx="14" cy="13" r="4"/>
		<circle fill="#434A53" cx="26" cy="13" r="4"/>
		<circle fill="#434A53" cx="38" cy="13" r="4"/>
	</g>
	<g>
		<path fill="#05BED5" d="M4,298c-1.1,0-2-0.9-2-2V24h396v272c0,1.1-0.9,2-2,2H4z"/>
		<path fill="#434A53" d="M396,26v270H4V26H396 M400,22H0v274c0,2.2,1.8,4,4,4h392c2.2,0,4-1.8,4-4V22L400,22z"/>
	</g>
	<g>
		<path fill="#FFFFFF" d="M150,298c-3.3,0-6-2.7-6-6V124c0-3.3,2.7-6,6-6h242c3.3,0,6,2.7,6,6v168c0,3.3-2.7,6-6,6H150z"/>
		<g>
			<path fill="#434A53" d="M392,120c2.2,0,4,1.8,4,4v168c0,2.2-1.8,4-4,4H150c-2.2,0-4-1.8-4-4V124c0-2.2,1.8-4,4-4H392 M392,116
				H150c-4.4,0-8,3.6-8,8v168c0,4.4,3.6,8,8,8h242c4.4,0,8-3.6,8-8V124C400,119.6,396.4,116,392,116L392,116z"/>
		</g>
	</g>
	<rect x="158" y="131" fill="#8C4BA9" width="226" height="154"/>
	<g>
		<path fill="#FFFFFF" d="M326,298c-3.3,0-6-2.7-6-6V156c0-3.3,2.7-6,6-6h66c3.3,0,6,2.7,6,6v136c0,3.3-2.7,6-6,6H326z"/>
		<g>
			<path fill="#434A53" d="M392,152c2.2,0,4,1.8,4,4v136c0,2.2-1.8,4-4,4h-66c-2.2,0-4-1.8-4-4V156c0-2.2,1.8-4,4-4H392 M392,148
				h-66c-4.4,0-8,3.6-8,8v136c0,4.4,3.6,8,8,8h66c4.4,0,8-3.6,8-8V156C400,151.6,396.4,148,392,148L392,148z"/>
		</g>
	</g>
	<rect x="327" y="166" fill="#C95196" width="64" height="116"/>
</g>
</svg>
