<?xml version="1.0" encoding="utf-8"?>
<!-- Generator: Adobe Illustrator 18.1.1, SVG Export Plug-In . SVG Version: 6.00 Build 0)  -->
<!DOCTYPE svg PUBLIC "-//W3C//DTD SVG 1.1//EN" "http://www.w3.org/Graphics/SVG/1.1/DTD/svg11.dtd">
<svg version="1.1" id="code" xmlns="http://www.w3.org/2000/svg" xmlns:xlink="http://www.w3.org/1999/xlink" x="0px" y="0px"
	 width="400px" height="300px" viewBox="0 0 400 300" enable-background="new 0 0 400 300" xml:space="preserve">
<g>
	<g id="window">
		<path fill="#FFFFFF" stroke="#434A53" stroke-width="4" stroke-miterlimit="10" d="M394,298H6c-2.2,0-4-1.8-4-4V6c0-2.2,1.8-4,4-4
			h388c2.2,0,4,1.8,4,4v288C398,296.2,396.2,298,394,298z"/>
		<path fill="#434A53" d="M398,22H2v272c0,2.2,1.8,4,4,4h388c2.2,0,4-1.8,4-4V22z"/>
		<circle fill="#434A53" cx="14" cy="13" r="4"/>
		<circle fill="#434A53" cx="26" cy="13" r="4"/>
		<circle fill="#434A53" cx="38" cy="13" r="4"/>
	</g>
	<g>
		<rect x="90" y="78" fill="#FFFFFF" width="60" height="8"/>
		<rect x="50" y="62" fill="#8C4BA9" width="30" height="8"/>
		<rect x="18" y="62" fill="#05BED5" width="8" height="8"/>
		<rect x="18" y="78" fill="#05BED5" width="8" height="8"/>
		<rect x="50" y="142" fill="#8C4BA9" width="30" height="8"/>
		<rect x="18" y="94" fill="#05BED5" width="8" height="8"/>
		<rect x="18" y="142" fill="#05BED5" width="8" height="8"/>
		<rect x="18" y="174" fill="#05BED5" width="8" height="8"/>
		<rect x="90" y="190" fill="#FFFFFF" width="80" height="8"/>
		<rect x="18" y="190" fill="#05BED5" width="8" height="8"/>
		<rect x="90" y="206" fill="#FFFFFF" width="220" height="8"/>
		<rect x="18" y="206" fill="#05BED5" width="8" height="8"/>
		<rect x="58" y="78" fill="#C95196" width="24" height="8"/>
		<rect x="158" y="78" fill="#C95196" width="24" height="8"/>
		<rect x="50" y="46" fill="#FFFFFF" width="42" height="8"/>
		<rect x="18" y="46" fill="#05BED5" width="8" height="8"/>
		<rect x="90" y="94" fill="#FFFFFF" width="70" height="8"/>
		<rect x="58" y="94" fill="#C95196" width="24" height="8"/>
		<rect x="168" y="94" fill="#C95196" width="24" height="8"/>
		<rect x="90" y="110" fill="#FFFFFF" width="60" height="8"/>
		<rect x="18" y="110" fill="#05BED5" width="8" height="8"/>
		<rect x="18" y="126" fill="#05BED5" width="8" height="8"/>
		<rect x="58" y="110" fill="#C95196" width="24" height="8"/>
		<rect x="158" y="110" fill="#C95196" width="24" height="8"/>
		<rect x="90" y="126" fill="#FFFFFF" width="70" height="8"/>
		<rect x="58" y="126" fill="#C95196" width="24" height="8"/>
		<rect x="168" y="126" fill="#C95196" width="24" height="8"/>
		<rect x="50" y="158" fill="#8C4BA9" width="30" height="8"/>
		<rect x="18" y="158" fill="#05BED5" width="8" height="8"/>
		<rect x="58" y="174" fill="#C95196" width="24" height="8"/>
		<rect x="70" y="222" fill="#FFFFFF" width="240" height="8"/>
		<rect x="18" y="222" fill="#05BED5" width="8" height="8"/>
		<rect x="70" y="238" fill="#FFFFFF" width="120" height="8"/>
		<rect x="18" y="238" fill="#05BED5" width="8" height="8"/>
		<rect x="18" y="254" fill="#05BED5" width="8" height="8"/>
		<rect x="58" y="254" fill="#C95196" width="24" height="8"/>
		<rect x="50" y="270" fill="#8C4BA9" width="30" height="8"/>
		<rect x="18" y="270" fill="#05BED5" width="8" height="8"/>
		<rect x="70" y="190" fill="#C95196" width="12" height="8"/>
		<rect x="178" y="190" fill="#C95196" width="12" height="8"/>
		<rect x="70" y="206" fill="#C95196" width="12" height="8"/>
		<rect x="198" y="238" fill="#C95196" width="12" height="8"/>
	</g>
</g>
</svg>
