<svg xmlns="http://www.w3.org/2000/svg" width="400" height="300" viewBox="0 0 400 300"><g><path fill="#fff" stroke="#434A53" stroke-width="4" stroke-miterlimit="10" d="M394 298h-388c-2.2 0-4-1.8-4-4v-288c0-2.2 1.8-4 4-4h388c2.2 0 4 1.8 4 4v288c0 2.2-1.8 4-4 4z"/><path fill="#434A53" d="M398 22h-396v272c0 2.2 1.8 4 4 4h388c2.2 0 4-1.8 4-4v-272z"/><circle fill="#434A53" cx="14" cy="13" r="4"/><circle fill="#434A53" cx="26" cy="13" r="4"/><circle fill="#434A53" cx="38" cy="13" r="4"/></g><path fill="#fff" d="M90 78h60v8h-60z"/><path fill="#8C4BA9" d="M50 62h30v8h-30z"/><path fill="#05BED5" d="M18 62h8v8h-8zM18 78h8v8h-8z"/><path fill="#8C4BA9" d="M50 142h30v8h-30z"/><path fill="#05BED5" d="M18 94h8v8h-8zM18 142h8v8h-8zM18 174h8v8h-8z"/><path fill="#fff" d="M90 190h80v8h-80z"/><path fill="#05BED5" d="M18 190h8v8h-8z"/><path fill="#fff" d="M90 206h220v8h-220z"/><path fill="#05BED5" d="M18 206h8v8h-8z"/><path fill="#B2347E" d="M58 78h24v8h-24zM158 78h24v8h-24z"/><path fill="#fff" d="M50 46h42v8h-42z"/><path fill="#05BED5" d="M18 46h8v8h-8z"/><path fill="#fff" d="M90 94h70v8h-70z"/><path fill="#B2347E" d="M58 94h24v8h-24zM168 94h24v8h-24z"/><path fill="#fff" d="M90 110h60v8h-60z"/><path fill="#05BED5" d="M18 110h8v8h-8zM18 126h8v8h-8z"/><path fill="#B2347E" d="M58 110h24v8h-24zM158 110h24v8h-24z"/><path fill="#fff" d="M90 126h70v8h-70z"/><path fill="#B2347E" d="M58 126h24v8h-24zM168 126h24v8h-24z"/><path fill="#8C4BA9" d="M50 158h30v8h-30z"/><path fill="#05BED5" d="M18 158h8v8h-8z"/><path fill="#B2347E" d="M58 174h24v8h-24z"/><path fill="#fff" d="M70 222h240v8h-240z"/><path fill="#05BED5" d="M18 222h8v8h-8z"/><path fill="#fff" d="M70 238h120v8h-120z"/><path fill="#05BED5" d="M18 238h8v8h-8zM18 254h8v8h-8z"/><path fill="#B2347E" d="M58 254h24v8h-24z"/><path fill="#8C4BA9" d="M50 270h30v8h-30z"/><path fill="#05BED5" d="M18 270h8v8h-8z"/><path fill="#B2347E" d="M70 190h12v8h-12zM178 190h12v8h-12zM70 206h12v8h-12zM198 238h12v8h-12z"/></svg>