<?xml version="1.0" encoding="utf-8"?>
<!-- Generator: Adobe Illustrator 18.1.1, SVG Export Plug-In . SVG Version: 6.00 Build 0)  -->
<!DOCTYPE svg PUBLIC "-//W3C//DTD SVG 1.1//EN" "http://www.w3.org/Graphics/SVG/1.1/DTD/svg11.dtd">
<svg version="1.1" id="code" xmlns="http://www.w3.org/2000/svg" xmlns:xlink="http://www.w3.org/1999/xlink" x="0px" y="0px"
	 width="400px" height="300px" viewBox="0 0 400 300" enable-background="new 0 0 400 300" xml:space="preserve">
<g>
	<path fill="#05BED5" d="M396,300H4c-2.2,0-4-1.8-4-4V4c0-2.2,1.8-4,4-4h392c2.2,0,4,1.8,4,4v292C400,298.2,398.2,300,396,300z"/>
	<g>
		<g>
			<g>
				<polygon fill="#FFFFFF" stroke="#434A53" stroke-width="4" stroke-linejoin="round" stroke-miterlimit="10" points="126,50 
					39,50 39,250 179,250 179,101 126,101 				"/>
				<polygon fill="#FFFFFF" stroke="#434A53" stroke-width="4" stroke-linejoin="round" stroke-miterlimit="10" points="126,50 
					126,101 179,101 152,75 				"/>
			</g>
			<rect x="41" y="158" fill="#8C4BA9" width="136" height="90"/>
			<line fill="none" stroke="#434A53" stroke-width="4" stroke-miterlimit="10" x1="41" y1="158" x2="177" y2="158"/>
			<g>
				<path fill="#FFFFFF" d="M76,215.4c-0.8,0-1.4-0.3-1.9-0.8c-0.5-0.5-0.8-1.2-0.8-2c0-0.8,0.3-1.5,0.8-2c0.5-0.5,1.2-0.8,1.9-0.8
					s1.4,0.3,1.9,0.8c0.5,0.5,0.8,1.2,0.8,2c0,0.8-0.3,1.5-0.8,2C77.4,215.2,76.7,215.4,76,215.4z"/>
				<path fill="#FFFFFF" d="M87,215.4c-1.5,0-2.5-0.4-3.1-1.3c-0.6-0.9-0.9-2.1-0.9-3.6v-20.9h4.1v21.1c0,0.5,0.1,0.9,0.3,1.1
					c0.2,0.2,0.4,0.3,0.6,0.3c0.1,0,0.2,0,0.3,0c0.1,0,0.2,0,0.4-0.1l0.5,3.1C88.6,215.3,87.9,215.4,87,215.4z"/>
				<path fill="#FFFFFF" d="M99.7,215.4c-1.2,0-2.4-0.2-3.4-0.6c-1.1-0.4-2-1-2.8-1.8s-1.4-1.8-1.9-2.9c-0.4-1.1-0.7-2.4-0.7-3.9
					c0-1.4,0.2-2.7,0.7-3.9c0.5-1.2,1.1-2.1,1.8-2.9s1.6-1.4,2.6-1.8c1-0.4,2-0.6,3-0.6c1.2,0,2.3,0.2,3.2,0.6s1.7,1,2.3,1.7
					c0.6,0.7,1.1,1.6,1.4,2.7c0.3,1,0.5,2.2,0.5,3.4c0,0.4,0,0.8-0.1,1.2c0,0.4-0.1,0.6-0.1,0.9H95.1c0.2,1.6,0.8,2.8,1.7,3.7
					c0.9,0.9,2.1,1.3,3.5,1.3c0.8,0,1.5-0.1,2.1-0.3c0.7-0.2,1.3-0.5,2-1l1.4,2.6c-0.8,0.6-1.8,1-2.8,1.4
					C102,215.3,100.9,215.4,99.7,215.4z M102.9,204.5c0-1.4-0.3-2.4-0.9-3.2c-0.6-0.8-1.5-1.2-2.7-1.2c-1.1,0-2,0.4-2.8,1.1
					c-0.8,0.7-1.3,1.8-1.5,3.3H102.9z"/>
				<path fill="#FFFFFF" d="M115.1,215.4c-1.2,0-2.4-0.2-3.6-0.7c-1.2-0.5-2.2-1-3.1-1.7l1.9-2.7c0.8,0.6,1.6,1.1,2.4,1.5
					c0.8,0.3,1.6,0.5,2.5,0.5c1,0,1.7-0.2,2.1-0.6c0.5-0.4,0.7-0.9,0.7-1.5c0-0.4-0.1-0.7-0.3-1c-0.2-0.3-0.5-0.5-0.9-0.7
					c-0.4-0.2-0.8-0.4-1.2-0.6c-0.5-0.2-0.9-0.4-1.4-0.6c-0.6-0.2-1.2-0.5-1.8-0.8c-0.6-0.3-1.1-0.6-1.6-1c-0.5-0.4-0.9-0.9-1.2-1.4
					c-0.3-0.5-0.4-1.2-0.4-1.9c0-1.6,0.6-2.8,1.7-3.8c1.2-1,2.7-1.5,4.7-1.5c1.2,0,2.3,0.2,3.3,0.6c1,0.4,1.8,0.9,2.6,1.5l-1.9,2.5
					c-0.6-0.5-1.3-0.8-1.9-1.1c-0.6-0.3-1.3-0.4-2-0.4c-0.9,0-1.5,0.2-2,0.6s-0.6,0.8-0.6,1.4c0,0.4,0.1,0.7,0.3,0.9
					c0.2,0.3,0.5,0.5,0.8,0.7c0.3,0.2,0.7,0.4,1.2,0.5c0.4,0.2,0.9,0.3,1.4,0.5c0.6,0.2,1.2,0.5,1.8,0.7c0.6,0.3,1.1,0.6,1.6,1
					c0.5,0.4,0.9,0.9,1.2,1.5c0.3,0.6,0.5,1.3,0.5,2.1c0,0.8-0.2,1.5-0.5,2.1c-0.3,0.7-0.7,1.2-1.3,1.7c-0.6,0.5-1.3,0.9-2.2,1.2
					C117.2,215.3,116.2,215.4,115.1,215.4z"/>
				<path fill="#FFFFFF" d="M130.6,215.4c-1.2,0-2.4-0.2-3.6-0.7c-1.2-0.5-2.2-1-3.1-1.7l1.9-2.7c0.8,0.6,1.6,1.1,2.4,1.5
					c0.8,0.3,1.6,0.5,2.5,0.5c1,0,1.7-0.2,2.1-0.6c0.5-0.4,0.7-0.9,0.7-1.5c0-0.4-0.1-0.7-0.3-1c-0.2-0.3-0.5-0.5-0.9-0.7
					c-0.4-0.2-0.8-0.4-1.2-0.6c-0.5-0.2-0.9-0.4-1.4-0.6c-0.6-0.2-1.2-0.5-1.8-0.8c-0.6-0.3-1.1-0.6-1.6-1c-0.5-0.4-0.9-0.9-1.2-1.4
					c-0.3-0.5-0.4-1.2-0.4-1.9c0-1.6,0.6-2.8,1.7-3.8c1.2-1,2.7-1.5,4.7-1.5c1.2,0,2.3,0.2,3.3,0.6c1,0.4,1.8,0.9,2.6,1.5l-1.9,2.5
					c-0.6-0.5-1.3-0.8-1.9-1.1c-0.6-0.3-1.3-0.4-2-0.4c-0.9,0-1.5,0.2-2,0.6s-0.6,0.8-0.6,1.4c0,0.4,0.1,0.7,0.3,0.9
					c0.2,0.3,0.5,0.5,0.8,0.7c0.3,0.2,0.7,0.4,1.2,0.5c0.4,0.2,0.9,0.3,1.4,0.5c0.6,0.2,1.2,0.5,1.8,0.7c0.6,0.3,1.1,0.6,1.6,1
					c0.5,0.4,0.9,0.9,1.2,1.5c0.3,0.6,0.5,1.3,0.5,2.1c0,0.8-0.2,1.5-0.5,2.1c-0.3,0.7-0.7,1.2-1.3,1.7c-0.6,0.5-1.3,0.9-2.2,1.2
					C132.7,215.3,131.7,215.4,130.6,215.4z"/>
			</g>
		</g>
		<g>
			<g>
				<polygon fill="#FFFFFF" stroke="#434A53" stroke-width="4" stroke-linejoin="round" stroke-miterlimit="10" points="308,50 
					221,50 221,250 361,250 361,101 308,101 				"/>
				<polygon fill="#FFFFFF" stroke="#434A53" stroke-width="4" stroke-linejoin="round" stroke-miterlimit="10" points="308,50 
					308,101 361,101 334,75 				"/>
			</g>
			<rect x="223" y="158" fill="#C95196" width="136" height="90"/>
			<line fill="none" stroke="#434A53" stroke-width="4" stroke-miterlimit="10" x1="223" y1="158" x2="359" y2="158"/>
			<g>
				<path fill="#FFFFFF" d="M262,215.4c-0.8,0-1.4-0.3-1.9-0.8c-0.5-0.5-0.8-1.2-0.8-2c0-0.8,0.3-1.5,0.8-2c0.5-0.5,1.2-0.8,1.9-0.8
					s1.4,0.3,1.9,0.8c0.5,0.5,0.8,1.2,0.8,2c0,0.8-0.3,1.5-0.8,2C263.4,215.2,262.7,215.4,262,215.4z"/>
				<path fill="#FFFFFF" d="M276.1,215.4c-1.2,0-2.3-0.2-3.4-0.6c-1-0.4-2-1-2.7-1.8s-1.4-1.8-1.8-2.9c-0.4-1.2-0.6-2.5-0.6-3.9
					c0-1.5,0.2-2.8,0.7-3.9s1.1-2.1,1.9-2.9c0.8-0.8,1.8-1.4,2.8-1.8s2.2-0.6,3.4-0.6c1.2,0,2.1,0.2,3,0.6c0.8,0.4,1.6,0.9,2.2,1.4
					l-2,2.7c-0.5-0.4-1-0.7-1.4-1c-0.5-0.2-1-0.3-1.5-0.3c-1.4,0-2.6,0.5-3.5,1.6c-0.9,1.1-1.3,2.5-1.3,4.3c0,1.8,0.4,3.2,1.3,4.3
					c0.9,1.1,2,1.6,3.4,1.6c0.7,0,1.4-0.1,2-0.5c0.6-0.3,1.2-0.7,1.7-1.1l1.7,2.7c-0.8,0.7-1.8,1.3-2.8,1.6
					C278.1,215.3,277.1,215.4,276.1,215.4z"/>
				<path fill="#FFFFFF" d="M290.6,215.4c-1.2,0-2.4-0.2-3.6-0.7c-1.2-0.5-2.2-1-3.1-1.7l1.9-2.7c0.8,0.6,1.6,1.1,2.4,1.5
					c0.8,0.3,1.6,0.5,2.5,0.5c1,0,1.7-0.2,2.1-0.6c0.5-0.4,0.7-0.9,0.7-1.5c0-0.4-0.1-0.7-0.3-1c-0.2-0.3-0.5-0.5-0.9-0.7
					c-0.4-0.2-0.8-0.4-1.2-0.6c-0.5-0.2-0.9-0.4-1.4-0.6c-0.6-0.2-1.2-0.5-1.8-0.8c-0.6-0.3-1.1-0.6-1.6-1c-0.5-0.4-0.9-0.9-1.2-1.4
					c-0.3-0.5-0.4-1.2-0.4-1.9c0-1.6,0.6-2.8,1.7-3.8c1.2-1,2.7-1.5,4.7-1.5c1.2,0,2.3,0.2,3.3,0.6c1,0.4,1.8,0.9,2.6,1.5l-1.9,2.5
					c-0.6-0.5-1.3-0.8-1.9-1.1c-0.6-0.3-1.3-0.4-2-0.4c-0.9,0-1.5,0.2-2,0.6s-0.6,0.8-0.6,1.4c0,0.4,0.1,0.7,0.3,0.9
					c0.2,0.3,0.5,0.5,0.8,0.7c0.3,0.2,0.7,0.4,1.2,0.5c0.4,0.2,0.9,0.3,1.4,0.5c0.6,0.2,1.2,0.5,1.8,0.7c0.6,0.3,1.1,0.6,1.6,1
					c0.5,0.4,0.9,0.9,1.2,1.5c0.3,0.6,0.5,1.3,0.5,2.1c0,0.8-0.2,1.5-0.5,2.1c-0.3,0.7-0.7,1.2-1.3,1.7c-0.6,0.5-1.3,0.9-2.2,1.2
					C292.7,215.3,291.8,215.4,290.6,215.4z"/>
				<path fill="#FFFFFF" d="M306.1,215.4c-1.2,0-2.4-0.2-3.6-0.7c-1.2-0.5-2.2-1-3.1-1.7l1.9-2.7c0.8,0.6,1.6,1.1,2.4,1.5
					c0.8,0.3,1.6,0.5,2.5,0.5c1,0,1.7-0.2,2.1-0.6c0.5-0.4,0.7-0.9,0.7-1.5c0-0.4-0.1-0.7-0.3-1c-0.2-0.3-0.5-0.5-0.9-0.7
					c-0.4-0.2-0.8-0.4-1.2-0.6c-0.5-0.2-0.9-0.4-1.4-0.6c-0.6-0.2-1.2-0.5-1.8-0.8c-0.6-0.3-1.1-0.6-1.6-1c-0.5-0.4-0.9-0.9-1.2-1.4
					c-0.3-0.5-0.4-1.2-0.4-1.9c0-1.6,0.6-2.8,1.7-3.8c1.2-1,2.7-1.5,4.7-1.5c1.2,0,2.3,0.2,3.3,0.6c1,0.4,1.8,0.9,2.6,1.5l-1.9,2.5
					c-0.6-0.5-1.3-0.8-1.9-1.1c-0.6-0.3-1.3-0.4-2-0.4c-0.9,0-1.5,0.2-2,0.6s-0.6,0.8-0.6,1.4c0,0.4,0.1,0.7,0.3,0.9
					c0.2,0.3,0.5,0.5,0.8,0.7c0.3,0.2,0.7,0.4,1.2,0.5c0.4,0.2,0.9,0.3,1.4,0.5c0.6,0.2,1.2,0.5,1.8,0.7c0.6,0.3,1.1,0.6,1.6,1
					c0.5,0.4,0.9,0.9,1.2,1.5c0.3,0.6,0.5,1.3,0.5,2.1c0,0.8-0.2,1.5-0.5,2.1c-0.3,0.7-0.7,1.2-1.3,1.7c-0.6,0.5-1.3,0.9-2.2,1.2
					C308.2,215.3,307.2,215.4,306.1,215.4z"/>
			</g>
		</g>
	</g>
</g>
</svg>
